<svg xmlns="http://www.w3.org/2000/svg" width="7.5" height="10" viewBox="0 0 7.5 10"><g transform="translate(-6188.25 -2694)"><path d="M6191.466,2697.841l-1.028,1.03-.4-.405a.313.313,0,1,0-.442.442l.625.625a.311.311,0,0,0,.221.092.317.317,0,0,0,.221-.091l1.25-1.25a.313.313,0,0,0-.443-.443Z" fill="#666"/><path d="M6191.466,2700.341l-1.028,1.03-.4-.4a.313.313,0,1,0-.442.442l.625.625a.314.314,0,0,0,.221.091.317.317,0,0,0,.221-.091l1.25-1.25a.313.313,0,0,0-.443-.443Z" fill="#666"/><path d="M6192.625,2698.688a.313.313,0,0,0,.313.312h1.25a.313.313,0,0,0,0-.625h-1.25A.313.313,0,0,0,6192.625,2698.688Z" fill="#666"/><path d="M6194.188,2700.875h-1.25a.313.313,0,1,0,0,.625h1.25a.313.313,0,0,0,0-.625Z" fill="#666"/><path d="M6193.563,2694.625h-.679a.937.937,0,0,0-1.768,0h-.678a.313.313,0,0,0-.313.313v.312h-1.25a.626.626,0,0,0-.625.625v7.5a.626.626,0,0,0,.625.625h6.25a.626.626,0,0,0,.625-.625v-7.5a.626.626,0,0,0-.625-.625h-1.25v-.312A.313.313,0,0,0,6193.563,2694.625Zm-2.813.625h.625a.313.313,0,0,0,.313-.312.313.313,0,1,1,.625,0,.312.312,0,0,0,.312.312h.625v.625h-2.5Zm4.375.625v7.5h-6.25v-7.5h1.25v.313a.313.313,0,0,0,.313.312h3.125a.312.312,0,0,0,.312-.312v-.313Z" fill="#666"/></g></svg>