<svg xmlns="http://www.w3.org/2000/svg" width="25.416" height="21.898" viewBox="0 0 25.416 21.898">
  <defs>
    <style>
      .cls-1 {
        fill: #e8f0ff;
      }

      .cls-2 {
        fill: #3a3a3c;
      }
    </style>
  </defs>
  <g id="Group_12028" data-name="Group 12028" transform="translate(-922.403 -373.213)">
    <g id="Group_12197" data-name="Group 12197">
      <path id="Path_12853" data-name="Path 12853" class="cls-1" d="M927.465,373.713l-4.558,4.558v15.158a1.184,1.184,0,0,0,1.184,1.184h14.122a1.184,1.184,0,0,0,1.183-1.184V374.9a1.183,1.183,0,0,0-1.183-1.184Z"/>
      <path id="Path_13003" data-name="Path 13003" class="cls-2" d="M938.213,395.112H924.091a1.685,1.685,0,0,1-1.684-1.683V378.271a.5.5,0,0,1,.147-.354l4.557-4.558a.5.5,0,0,1,.354-.146h10.748A1.685,1.685,0,0,1,939.9,374.9v18.532A1.684,1.684,0,0,1,938.213,395.112Zm-14.806-16.634v14.951a.684.684,0,0,0,.684.683h14.122a.683.683,0,0,0,.683-.683V374.9a.684.684,0,0,0-.683-.684H927.672Z"/>
    </g>
    <g id="Group_12198" data-name="Group 12198">
      <path id="Path_12854" data-name="Path 12854" class="cls-1" d="M922.9,378.346h4.447v-4.558"/>
      <path id="Path_13004" data-name="Path 13004" class="cls-2" d="M927.351,378.846H922.9a.5.5,0,0,1,0-1h3.948v-4.058a.5.5,0,0,1,1,0v4.558A.5.5,0,0,1,927.351,378.846Z"/>
    </g>
    <g id="Group_12014" data-name="Group 12014">
      <path id="Path_13005" data-name="Path 13005" class="cls-2" d="M935.888,382.08h-9.479a.5.5,0,0,1,0-1h9.479a.5.5,0,0,1,0,1Z"/>
      <path id="Path_13006" data-name="Path 13006" class="cls-2" d="M935.888,385.561h-9.479a.5.5,0,0,1,0-1h9.479a.5.5,0,0,1,0,1Z"/>
      <path id="Path_13007" data-name="Path 13007" class="cls-2" d="M935.888,389.042h-9.479a.5.5,0,0,1,0-1h9.479a.5.5,0,0,1,0,1Z"/>
    </g>
    <g id="Group_12199" data-name="Group 12199">
      <path id="Path_12855" data-name="Path 12855" class="cls-1" d="M937.045,389.292l-1.355-1.355,10.054-10.054a.752.752,0,0,1,1.064,0l.291.291a.752.752,0,0,1,0,1.063h0Z"/>
      <path id="Path_13008" data-name="Path 13008" class="cls-2" d="M937.045,389.792h0a.5.5,0,0,1-.354-.146l-1.354-1.356a.5.5,0,0,1,0-.707l10.054-10.054a1.256,1.256,0,0,1,1.77,0l.291.291a1.255,1.255,0,0,1,0,1.77L937.4,389.646A.5.5,0,0,1,937.045,389.792Zm-.648-1.855.648.648,9.7-9.7a.251.251,0,0,0,0-.356l-.291-.292a.253.253,0,0,0-.356,0Z"/>
    </g>
    <g id="Group_12200" data-name="Group 12200">
      <path id="Path_12856" data-name="Path 12856" class="cls-1" d="M936.078,390.241l-1.978.64.64-1.978Z"/>
      <path id="Path_13009" data-name="Path 13009" class="cls-2" d="M934.1,391.381a.5.5,0,0,1-.476-.653l.64-1.98a.5.5,0,0,1,.358-.332.506.506,0,0,1,.471.133l1.338,1.339a.5.5,0,0,1-.2.829l-1.977.639A.487.487,0,0,1,934.1,391.381Zm.864-1.547-.088.27.27-.087Z"/>
    </g>
    <g id="Group_12201" data-name="Group 12201">
      <path id="Path_12857" data-name="Path 12857" class="cls-1" d="M946.525,380.226h0a1.065,1.065,0,0,1,0,1.506l-3.228,3.227"/>
      <path id="Path_13010" data-name="Path 13010" class="cls-2" d="M943.3,385.459a.5.5,0,0,1-.354-.854l3.229-3.227a.565.565,0,0,0,0-.8.5.5,0,0,1,.707-.708,1.566,1.566,0,0,1,0,2.213l-3.229,3.228A.5.5,0,0,1,943.3,385.459Z"/>
    </g>
  </g>
</svg>
