<svg xmlns="http://www.w3.org/2000/svg" width="15.982" height="15.937" viewBox="0 0 15.982 15.937"><path d="M10.123-933.646v-9.22H7.615a1.132,1.132,0,0,1-1.049-.7,1.139,1.139,0,0,1,.244-1.244l2.658-2.673a1.736,1.736,0,0,1,1.24-.516,1.736,1.736,0,0,1,1.24.516l2.657,2.673a1.138,1.138,0,0,1,.245,1.244,1.134,1.134,0,0,1-1.049.7h-.642a.584.584,0,0,1-.584-.584.583.583,0,0,1,.584-.582h.575l-2.614-2.63a.577.577,0,0,0-.412-.172.577.577,0,0,0-.412.172l-2.614,2.63h2.442a1.167,1.167,0,0,1,1.167,1.166v9.22a.584.584,0,0,1-.583.583A.584.584,0,0,1,10.123-933.646Zm-7.133.068L.332-936.251A1.14,1.14,0,0,1,.088-937.5a1.133,1.133,0,0,1,1.049-.7H3.646v-9.219A.583.583,0,0,1,4.23-948a.583.583,0,0,1,.583.584v9.219a1.168,1.168,0,0,1-1.167,1.167H1.2L3.817-934.4a.581.581,0,0,0,.413.172.576.576,0,0,0,.412-.172l2.615-2.629H6.682a.583.583,0,0,1-.584-.583.583.583,0,0,1,.584-.584h.641a1.131,1.131,0,0,1,1.049.7,1.137,1.137,0,0,1-.244,1.245L5.47-933.578a1.736,1.736,0,0,1-1.24.516A1.731,1.731,0,0,1,2.991-933.578Z" transform="translate(0.522 948.5)" fill="#444bfa" stroke="rgba(0,0,0,0)" stroke-miterlimit="10" stroke-width="1"/></svg>