<svg xmlns="http://www.w3.org/2000/svg" width="13.432" height="16.984" viewBox="0 0 13.432 16.984"><g transform="translate(-1245.074 -30.952)"><path d="M1256.229,45.686h-8.748a2.082,2.082,0,0,1-1.48-.613l-.316-.315a2.106,2.106,0,0,1-.355-2.49l.869-1.579a.452.452,0,0,0,.056-.217V37.261a2.112,2.112,0,0,1,.612-1.48l4.829-4.829,5.061,5.06a2.083,2.083,0,0,1,.612,1.481v2.971a.451.451,0,0,0,.052.208l.851,1.652a2.083,2.083,0,0,1-.058,2.024l-.182.308A2.1,2.1,0,0,1,1256.229,45.686Zm-4.533-12.41-3.666,3.666a.457.457,0,0,0-.133.319v3.211a2.094,2.094,0,0,1-.258,1.01l-.868,1.577a.453.453,0,0,0,.076.536l.315.315a.449.449,0,0,0,.319.132h8.748a.448.448,0,0,0,.387-.221l.183-.309a.448.448,0,0,0,.013-.435l-.853-1.653a2.117,2.117,0,0,1-.232-.96V37.493a.457.457,0,0,0-.133-.32Z" fill="#06c"/><path d="M1251.935,47.936a2.673,2.673,0,0,1-2.67-2.671h1.642a1.028,1.028,0,0,0,2.055,0h1.642A2.673,2.673,0,0,1,1251.935,47.936Z" fill="#06c"/></g></svg>