<svg xmlns="http://www.w3.org/2000/svg" width="15.741" height="15.931" viewBox="0 0 15.741 15.931"><path d="M.726-933.069A.726.726,0,0,1,0-933.8v-12.259a.726.726,0,0,1,.726-.726H7.088a.726.726,0,0,1,.725.726.726.726,0,0,1-.725.726H1.452v10.806H11.638v-5.4a.726.726,0,0,1,.726-.726.726.726,0,0,1,.725.726v6.13a.726.726,0,0,1-.725.726Zm7.944-11.9A3.039,3.039,0,0,1,11.706-948a3.038,3.038,0,0,1,3.035,3.035,3.037,3.037,0,0,1-3.035,3.035A3.038,3.038,0,0,1,8.671-944.965Z" transform="translate(0.5 948.5)" fill="#999999" stroke="rgba(0,0,0,0)" stroke-miterlimit="10" stroke-width="1"/></svg>