<svg xmlns="http://www.w3.org/2000/svg" width="8.07" height="8.252" viewBox="0 0 8.07 8.252"><g transform="translate(-10619.673 -4540.925)"><path d="M10627.025,4541.844v1a.817.817,0,0,1-.818.815h-.515a.82.82,0,0,1-.822-.815v-1h-2.324v1a.82.82,0,0,1-.822.815h-.515a.816.816,0,0,1-.817-.815v-1a.743.743,0,0,0-.719.739v5.85a.744.744,0,0,0,.74.744h6.59a.744.744,0,0,0,.74-.744v-5.85a.743.743,0,0,0-.718-.739Zm-.24,6.225a.32.32,0,0,1-.32.319h-5.528a.319.319,0,0,1-.319-.319v-3.022a.319.319,0,0,1,.319-.32h5.528a.32.32,0,0,1,.32.32Zm0,0" fill="#fff"/><path d="M10621.207,4543.122h.51a.28.28,0,0,0,.28-.281v-1.636a.28.28,0,0,0-.28-.28h-.51a.28.28,0,0,0-.28.28v1.636a.28.28,0,0,0,.28.281Zm0,0" fill="#fff"/><path d="M10625.685,4543.122h.511a.28.28,0,0,0,.279-.281v-1.636a.279.279,0,0,0-.279-.28h-.511a.28.28,0,0,0-.279.28v1.636a.281.281,0,0,0,.279.281Zm0,0" fill="#fff"/></g></svg>