<svg xmlns="http://www.w3.org/2000/svg" width="8.07" height="8.252" viewBox="0 0 8.07 8.252"><g transform="translate(-4014.467 -3563.362)"><path d="M4021.818,3564.28v1a.815.815,0,0,1-.817.814h-.515a.819.819,0,0,1-.822-.814v-1h-2.324v1a.819.819,0,0,1-.822.814H4016a.815.815,0,0,1-.817-.814v-1a.744.744,0,0,0-.719.74v5.85a.744.744,0,0,0,.74.744h6.59a.744.744,0,0,0,.74-.744v-5.85A.744.744,0,0,0,4021.818,3564.28Zm-.239,6.225a.32.32,0,0,1-.32.32h-5.528a.32.32,0,0,1-.32-.32v-3.021a.32.32,0,0,1,.32-.32h5.528a.32.32,0,0,1,.32.32Z" fill="#666"/><rect width="1.07" height="2.197" rx="0.28" transform="translate(4015.721 3563.362)" fill="#666"/><rect width="1.07" height="2.197" rx="0.28" transform="translate(4020.199 3563.362)" fill="#666"/></g></svg>