<svg xmlns="http://www.w3.org/2000/svg" width="18.282" height="13.436" viewBox="0 0 18.282 13.436"><g transform="translate(-5971.859 -3551)"><path d="M5989.678,3558.882a4.611,4.611,0,1,1-6.122-6,5.484,5.484,0,0,0-9.618,3.6c0,.155.007.311.02.466a3.979,3.979,0,0,0,1.879,7.486h10.326a4.342,4.342,0,0,0,2.776-.917,3.3,3.3,0,0,0,1.2-2.632A4.772,4.772,0,0,0,5989.678,3558.882Z" fill="#857bff"/><path d="M5981.889,3557.094a3.539,3.539,0,1,0,3.539-3.539A3.542,3.542,0,0,0,5981.889,3557.094Zm3.539,1.808a.536.536,0,1,1,.536-.535A.535.535,0,0,1,5985.428,3558.9Zm0-1.466a.535.535,0,0,1-.536-.535v-1.4a.536.536,0,1,1,1.072,0v1.4A.535.535,0,0,1,5985.428,3557.436Z" fill="#857bff"/></g></svg>