<svg xmlns="http://www.w3.org/2000/svg" width="16.367" height="17.595" viewBox="0 0 16.367 17.595"><path d="M7.5-935.155a7.16,7.16,0,0,0-6.178,3.565L0-932.355a8.693,8.693,0,0,1,7.5-4.327,8.692,8.692,0,0,1,7.5,4.329l-1.321.765A7.161,7.161,0,0,0,7.5-935.155Zm-4.886-7.959A4.892,4.892,0,0,1,7.5-948a4.891,4.891,0,0,1,4.886,4.886A4.892,4.892,0,0,1,7.5-938.228,4.892,4.892,0,0,1,2.614-943.114Zm1.527,0A3.364,3.364,0,0,0,7.5-939.755a3.364,3.364,0,0,0,3.36-3.359,3.364,3.364,0,0,0-3.36-3.36A3.364,3.364,0,0,0,4.141-943.114Z" transform="translate(0.683 948.5)" fill="#fff" stroke="rgba(0,0,0,0)" stroke-miterlimit="10" stroke-width="1"/></svg>