<svg xmlns="http://www.w3.org/2000/svg" width="17.687" height="24.885" viewBox="0 0 17.687 24.885">
  <defs>
    <style>
      .cls-1 {
        fill: #e8f0ff;
      }

      .cls-2 {
        fill: #3a3a3c;
      }
    </style>
  </defs>
  <g id="Group_12024" data-name="Group 12024" transform="translate(-418.92 -369.23)">
    <g id="Group_12166" data-name="Group 12166">
      <path id="Path_12846" data-name="Path 12846" class="cls-1" d="M433.675,375.568a5.911,5.911,0,0,0-11.821,0"/>
      <path id="Path_12971" data-name="Path 12971" class="cls-2" d="M433.675,376.068a.5.5,0,0,1-.5-.494,5.37,5.37,0,0,0-1.633-3.8,5.314,5.314,0,0,0-3.846-1.537,5.381,5.381,0,0,0-5.342,5.342.5.5,0,0,1-.5.494h-.006a.5.5,0,0,1-.494-.506,6.411,6.411,0,0,1,12.821,0,.5.5,0,0,1-.493.506Z"/>
    </g>
    <g id="Group_12167" data-name="Group 12167">
      <path id="Path_12847" data-name="Path 12847" class="cls-1" d="M432.241,377.861a4.53,4.53,0,0,1-8.974-.171v-1.865c.8.12,5.589-.362,6.373-1.356a4.609,4.609,0,0,0,2.6,2.41c.2,0,0,.811,0,.811Z"/>
      <path id="Path_12972" data-name="Path 12972" class="cls-2" d="M427.777,382.19a5.146,5.146,0,0,1-.79-.062,5.045,5.045,0,0,1-4.216-4.379l0-1.924a.5.5,0,0,1,.574-.5c.888.134,5.324-.431,5.907-1.171a.5.5,0,0,1,.847.1,4.135,4.135,0,0,0,2.318,2.149v0a.612.612,0,0,1,.273.185c.076.1.25.319.056,1.151v.11a.525.525,0,0,1-.006.08,5.031,5.031,0,0,1-4.958,4.252Zm-4.01-5.855v1.355a4.032,4.032,0,0,0,7.974.132v-.129a.511.511,0,0,1,.015-.123c.025-.1.048-.224.061-.322a5.149,5.149,0,0,1-2.343-2.031A16.03,16.03,0,0,1,423.767,376.335Z"/>
    </g>
    <g id="Group_12168" data-name="Group 12168">
      <path id="Path_12848" data-name="Path 12848" class="cls-1" d="M435.164,393.612a.943.943,0,0,0,.943-.943.927.927,0,0,0-.012-.149c-.573-3.6-1.967-7.772-4.775-9.713l-3.555,1.058-3.633-1c-2.757,1.964-4.13,6.094-4.7,9.659a.944.944,0,0,0,.931,1.092Z"/>
      <path id="Path_12973" data-name="Path 12973" class="cls-2" d="M420.363,394.116a1.445,1.445,0,0,1-1.425-1.672c.438-2.737,1.658-7.674,4.9-9.986a.493.493,0,0,1,.423-.075l3.495.962,3.418-1.017a.5.5,0,0,1,.426.068c3.31,2.288,4.544,7.276,4.985,10.044a1.5,1.5,0,0,1,.018.229,1.447,1.447,0,0,1-1.442,1.443h0Zm14.8-.5h0Zm-10.93-10.2c-2.81,2.161-3.9,6.664-4.308,9.192a.441.441,0,0,0,.367.506l14.87,0a.444.444,0,0,0,.444-.443c-.413-2.625-1.519-7.173-4.379-9.313l-3.32.988a.5.5,0,0,1-.276,0Z"/>
    </g>
    <g id="Group_12169" data-name="Group 12169">
      <path id="Path_12849" data-name="Path 12849" class="cls-1" d="M428.951,386.2l-.331,1.808h-1.74l-.332-1.808,1.284-1.3Z"/>
      <path id="Path_12974" data-name="Path 12974" class="cls-2" d="M429.037,388.511h-2.573l-.455-2.474,1.848-1.871,1.629,1.892Zm-1.74-1h.907l.213-1.163-.61-.708-.72.729Z"/>
    </g>
    <g id="Group_12170" data-name="Group 12170">
      <path id="Path_12850" data-name="Path 12850" class="cls-1" d="M428.951,386.206l-.331,1.808h-1.74l-.332-1.808"/>
      <path id="Path_12975" data-name="Path 12975" class="cls-2" d="M428.62,388.514h-1.74a.5.5,0,0,1-.491-.41l-.332-1.808a.5.5,0,1,1,.983-.18l.257,1.4h.907l.255-1.4a.506.506,0,0,1,.582-.4.5.5,0,0,1,.4.582l-.331,1.808A.5.5,0,0,1,428.62,388.514Z"/>
    </g>
    <g id="Group_12171" data-name="Group 12171">
      <path id="Path_12851" data-name="Path 12851" class="cls-1" d="M431.518,384.158l-1.3,2.8-2.386-2.048H427.7l-2.382,2.049-1.3-2.8"/>
      <path id="Path_12976" data-name="Path 12976" class="cls-2" d="M425.313,387.459a.464.464,0,0,1-.1-.012.5.5,0,0,1-.349-.277l-1.3-2.8a.5.5,0,0,1,.907-.421l1.021,2.2,1.881-1.617a.5.5,0,0,1,.326-.121h.137a.5.5,0,0,1,.326.12l1.885,1.618,1.021-2.2a.5.5,0,0,1,.908.421l-1.3,2.8a.5.5,0,0,1-.779.169l-2.129-1.828-2.125,1.828A.5.5,0,0,1,425.313,387.459Z"/>
    </g>
    <g id="Group_12172" data-name="Group 12172">
      <path id="Path_12852" data-name="Path 12852" class="cls-1" d="M426.549,391.3l.589-3.782h1.229l.585,3.782Z"/>
      <path id="Path_12977" data-name="Path 12977" class="cls-2" d="M428.952,391.8h-2.4a.5.5,0,0,1-.494-.577l.589-3.783a.5.5,0,0,1,.494-.422h1.229a.5.5,0,0,1,.494.423l.585,3.783a.5.5,0,0,1-.494.576Zm-1.819-1h1.236l-.431-2.782h-.372Z"/>
    </g>
    <path id="Path_12978" data-name="Path 12978" class="cls-2" d="M432.735,388.71h-2.361a.5.5,0,0,1,0-1h2.361a.5.5,0,0,1,0,1Z"/>
  </g>
</svg>
