<svg xmlns="http://www.w3.org/2000/svg" width="10.328" height="7.374" viewBox="0 0 10.328 7.374"><path d="M512.135,335.338a.572.572,0,0,1-.561-.489l3.638-2.3.82.541a.293.293,0,0,0,.318,0l.82-.54,3.639,2.3a.573.573,0,0,1-.562.489ZM517.7,332.2l3.125-2.059v4.035Zm-6.146-2.059,3.126,2.059-3.126,1.975Zm.018-.681a.571.571,0,0,1,.562-.494h8.112a.573.573,0,0,1,.563.494L516.19,332.5Z" transform="translate(-511.027 -328.464)" fill="#fff" stroke="rgba(0,0,0,0)" stroke-miterlimit="10" stroke-width="1"/></svg>