<svg xmlns="http://www.w3.org/2000/svg" width="9.271" height="6.374" viewBox="0 0 9.271 6.374"><g transform="translate(-6252.564 -2267.997)"><path d="M6261.835,2269.172v4.035l-3.125-1.976Z" fill="#121212"/><path d="M6255.689,2271.231l-3.125,1.976v-4.035Z" fill="#121212"/><path d="M6261.817,2268.49a.572.572,0,0,0-.562-.493h-8.112a.573.573,0,0,0-.562.493l4.618,3.043Z" fill="#121212"/><path d="M6257.359,2272.122a.295.295,0,0,1-.319,0l-.82-.541-3.638,2.3a.572.572,0,0,0,.561.489h8.112a.571.571,0,0,0,.561-.489l-3.638-2.3Z" fill="#121212"/></g></svg>