<svg xmlns="http://www.w3.org/2000/svg" width="15" height="17.437" viewBox="0 0 15 17.437"><path d="M35.594,127.2h-4.78a.789.789,0,0,1-.789-.789v-4.083h-2.1v4.083a.789.789,0,0,1-.789.789H22.172a.789.789,0,0,1-.789-.789v-9.745a.788.788,0,0,1,.258-.583l6.711-6.114a.79.79,0,0,1,1.063,0l6.71,6.114a.785.785,0,0,1,.258.583v9.745A.789.789,0,0,1,35.594,127.2ZM31.6,125.623h3.2v-8.608l-5.921-5.394-5.923,5.394v8.608h3.387V121.54a.788.788,0,0,1,.789-.789h3.677a.789.789,0,0,1,.789.789Z" transform="translate(-21.383 -109.764)" fill="#5fb7ff"/></svg>