<svg xmlns="http://www.w3.org/2000/svg" width="28.082" height="26.998" viewBox="0 0 28.082 26.998">
  <defs>
    <style>
      .cls-1 {
        fill: #d5f4ee;
      }

      .cls-2 {
        fill: #3a3a3c;
      }
    </style>
  </defs>
  <g id="Group_12027" data-name="Group 12027" transform="translate(-792.739 -369.115)">
    <g id="Group_12173" data-name="Group 12173">
      <circle id="Ellipse_1271" data-name="Ellipse 1271" class="cls-1" cx="2.263" cy="2.263" r="2.263" transform="translate(795.582 369.615)"/>
      <path id="Path_12979" data-name="Path 12979" class="cls-2" d="M797.85,374.642a2.763,2.763,0,1,1,1.447-.413A2.749,2.749,0,0,1,797.85,374.642Zm-.008-4.527a1.771,1.771,0,1,0,.407.048A1.709,1.709,0,0,0,797.842,370.115Z"/>
    </g>
    <g id="Group_12174" data-name="Group 12174">
      <path id="Path_12833" data-name="Path 12833" class="cls-1" d="M805.989,375.594l-6.648-.149-1.5,2.791-1.5-2.791c-1.538.18-2.767.888-2.97,3.666a28.405,28.405,0,0,0,0,5.486l1.271.887.185,10.13h2.078l.4-7.453h1.065l.4,7.453h2.078l.185-10.13s.3-7.21.216-7.555h4.734a1.168,1.168,0,1,0,.069-2.335q-.035,0-.069,0Z"/>
      <path id="Path_12980" data-name="Path 12980" class="cls-2" d="M800.848,396.113H798.77a.5.5,0,0,1-.5-.473l-.375-6.979h-.118l-.374,6.979a.5.5,0,0,1-.5.473h-2.078a.5.5,0,0,1-.5-.491l-.18-9.874-1.062-.741a.5.5,0,0,1-.212-.362,29.076,29.076,0,0,1,0-5.582c.189-2.588,1.241-3.861,3.409-4.115a.5.5,0,0,1,.5.26l1.06,1.972,1.059-1.972a.546.546,0,0,1,.452-.263l6.644.149h.077a1.668,1.668,0,0,1-.1,3.335h-4.209c0,1.316-.115,4.422-.226,7.075l-.185,10.118A.5.5,0,0,1,800.848,396.113Zm-1.605-1h1.113l.177-9.638c.112-2.678.27-7.057.224-7.462a.466.466,0,0,1,.1-.41.489.489,0,0,1,.4-.174h4.733a.707.707,0,0,0,.7-.648.669.669,0,0,0-.648-.687c-.018,0-.033,0-.049,0h-.03l-6.323-.141-1.355,2.521a.52.52,0,0,1-.881,0l-1.334-2.482c-1.209.225-2.033.92-2.2,3.156a28.013,28.013,0,0,0-.022,5.172l1.081.754a.5.5,0,0,1,.214.4l.175,9.638h1.114l.374-6.978a.5.5,0,0,1,.5-.474h1.065a.5.5,0,0,1,.5.474Z"/>
    </g>
    <g id="Group_12008" data-name="Group 12008">
      <g id="Group_12175" data-name="Group 12175">
        <path id="Path_12834" data-name="Path 12834" class="cls-1" d="M818.028,387.789V395.2a.363.363,0,0,1-.363.363H805.944a.363.363,0,0,1-.363-.363h0v-7.409"/>
        <path id="Path_12981" data-name="Path 12981" class="cls-2" d="M817.665,396.061H805.944a.864.864,0,0,1-.863-.863v-7.409a.5.5,0,1,1,1,0v7.272h11.447v-7.272a.5.5,0,1,1,1,0V395.2A.864.864,0,0,1,817.665,396.061Z"/>
      </g>
      <g id="Group_12176" data-name="Group 12176">
        <path id="Path_12835" data-name="Path 12835" class="cls-1" d="M815.1,381.814v-2.407h2.935v5.506"/>
        <path id="Path_12982" data-name="Path 12982" class="cls-2" d="M818.032,385.413a.5.5,0,0,1-.5-.5v-5.006H815.6v1.907a.5.5,0,0,1-1,0v-2.407a.5.5,0,0,1,.5-.5h2.934a.5.5,0,0,1,.5.5v5.506A.5.5,0,0,1,818.032,385.413Z"/>
      </g>
      <g id="Group_12177" data-name="Group 12177">
        <path id="Path_12836" data-name="Path 12836" class="cls-1" d="M820.32,388.817l-2.289-2.417-5.792-6.115a.6.6,0,0,0-.848-.024l-.024.024-8.081,8.532"/>
        <path id="Path_12983" data-name="Path 12983" class="cls-2" d="M820.32,389.316a.5.5,0,0,1-.363-.156l-8.081-8.532a.1.1,0,0,0-.143,0l-8.084,8.535a.5.5,0,1,1-.726-.687L811,379.941a1.114,1.114,0,0,1,1.6,0l8.081,8.532a.5.5,0,0,1-.364.843Z"/>
      </g>
      <g id="Group_12178" data-name="Group 12178">
        <path id="Path_12837" data-name="Path 12837" class="cls-1" d="M813.807,395.561h-3.859v-3.669a1.93,1.93,0,0,1,1.93-1.93h0a1.929,1.929,0,0,1,1.929,1.93Z"/>
        <path id="Path_12984" data-name="Path 12984" class="cls-2" d="M813.808,396.061h-3.86a.5.5,0,0,1-.5-.5v-3.669a2.43,2.43,0,0,1,4.86,0v3.669A.5.5,0,0,1,813.808,396.061Zm-3.36-1h2.86v-3.169a1.43,1.43,0,0,0-2.86,0Z"/>
      </g>
    </g>
  </g>
</svg>
