<svg xmlns="http://www.w3.org/2000/svg" width="39.244" height="48.61" viewBox="0 0 39.244 48.61">
  <defs>
    <style>
      .cls-1 {
        fill: #3b72d9;
        fill-rule: evenodd;
      }
    </style>
  </defs>
  <path id="Path_12821" data-name="Path 12821" class="cls-1" d="M-156.449,544.183l15.277-.033,9.911-7.793a2.535,2.535,0,0,0-1.442-.55,3.541,3.541,0,0,0-2.392.875l-5.144,4.044-.269.212-.335-.077-11.354-2.612a2.3,2.3,0,0,1-1.76-1.351,2.255,2.255,0,0,1-.158-.975,2.222,2.222,0,0,1,.276-.953,2.178,2.178,0,0,1,1.955-1.107l6.543-.1a3.539,3.539,0,0,0,2.407-.831,2.547,2.547,0,0,0,.776-1.335l-12.835.211-4.271,3.243,2.815,9.135Zm25.05-27.742-2.328-2.17V526.85H-151.9V514.271l-2.328,2.17-.977-1.05,11.9-11.1.489-.456.488.456,11.9,11.1-.977,1.05Zm-3.765-3.51-7.647-7.13-7.647,7.13v12.481h15.294V512.931Zm-10.55,1.729h-.719V521.9h7.244V514.66h-6.525Zm5.087,1.437h-4.368v4.369h4.368V516.1Zm-19.6,17.887,4.559-3.461.187-.142.234,0,13.865-.228.719-.012.009.719a4.029,4.029,0,0,1-1.311,3.135,4.954,4.954,0,0,1-3.362,1.2l-6.532.1a.8.8,0,0,0-.725.371.8.8,0,0,0-.1.341.818.818,0,0,0,.057.357.845.845,0,0,0,.723.481l11.045,2.541,4.875-3.833a4.955,4.955,0,0,1,3.359-1.177,4.026,4.026,0,0,1,3,1.605l.448.566-.566.445-10.731,8.438-.192.151h-.251l-15.088.033,1.062,3.448.211.684-.686.211-7.406,2.282-.684.211-.211-.685-4.49-14.571-.211-.685.686-.211,7.507-2.314Zm3.7,14.814-6.036,1.86-4.068-13.2,6.036-1.86Z" transform="translate(168.424 -503.84)"/>
</svg>
