<svg xmlns="http://www.w3.org/2000/svg" width="9.554" height="10.148" viewBox="0 0 9.554 10.148"><g transform="translate(-3872.71 -3562.289)"><path d="M3880.779,3563.774a5.081,5.081,0,0,0-7.179,0,.441.441,0,0,0,.624.624,4.194,4.194,0,1,1,.243,6.156l.181-.181a.331.331,0,0,0-.148-.554l-1.373-.367a.331.331,0,0,0-.405.405l.367,1.372a.331.331,0,0,0,.554.149l.2-.2a5.076,5.076,0,0,0,6.938-7.405Z" fill="#666"/><path d="M3877.043,3565.09a.331.331,0,0,0-.331.331v2.174a.331.331,0,0,0,.331.331h1.412a.331.331,0,0,0,0-.662h-1.081v-1.843A.331.331,0,0,0,3877.043,3565.09Z" fill="#666"/></g></svg>