<svg xmlns="http://www.w3.org/2000/svg" width="14.931" height="14.931" viewBox="0 0 14.931 14.931"><path d="M28.883,275.252a1.75,1.75,0,1,0-1.749-1.75,1.752,1.752,0,0,0,1.749,1.75Zm0-2.333a.583.583,0,1,1-.583.583.584.584,0,0,1,.583-.583Zm3.208,8.109a2.053,2.053,0,0,1-.991,1.751l-.042.025a.88.88,0,0,0-.425.75V286.1a.583.583,0,1,1-1.166,0v-2.546a2.05,2.05,0,0,1,.991-1.75l.042-.025a.881.881,0,0,0,.425-.751v-2.6c0-1.2-1.118-1.458-2.056-1.458s-2.056.253-2.056,1.458v2.59a.878.878,0,0,0,.431.754l.05.029a2.051,2.051,0,0,1,1.006,1.76V286.1a.583.583,0,1,1-1.166,0v-2.537a.878.878,0,0,0-.432-.754l-.049-.029a2.051,2.051,0,0,1-1.007-1.76v-2.59a2.37,2.37,0,0,1,1.026-2.048,3.879,3.879,0,0,1,2.2-.576,3.875,3.875,0,0,1,2.2.576,2.37,2.37,0,0,1,1.026,2.048Zm-7.757-4.61a1.749,1.749,0,1,0-1.75-1.75,1.752,1.752,0,0,0,1.75,1.75Zm0-2.333a.584.584,0,1,1-.583.583.584.584,0,0,1,.583-.583Zm1.75,9.973V286.1a.584.584,0,0,1-1.167,0v-2.042a.584.584,0,0,1,1.167,0Zm-1.225-6.488a.583.583,0,0,1-.583.583c-1.692,0-1.692.795-1.692,1.094v2.478a.879.879,0,0,0,.35.7,2.05,2.05,0,0,1,.817,1.633V286.1a.584.584,0,0,1-1.167,0v-2.042a.874.874,0,0,0-.35-.7,2.053,2.053,0,0,1-.816-1.634v-2.478a2.026,2.026,0,0,1,.936-1.8,3.559,3.559,0,0,1,1.922-.458.583.583,0,0,1,.583.583Zm8.574-1.152a1.749,1.749,0,1,0-1.75-1.75,1.752,1.752,0,0,0,1.75,1.75Zm0-2.333a.584.584,0,1,1-.584.583.584.584,0,0,1,.584-.583Zm-.584,9.973V286.1a.583.583,0,1,1-1.166,0v-2.042a.583.583,0,1,1,1.166,0Zm3.5-4.811v2.478a2.054,2.054,0,0,1-.817,1.634.877.877,0,0,0-.35.7V286.1a.583.583,0,1,1-1.166,0v-2.042a2.052,2.052,0,0,1,.816-1.633.876.876,0,0,0,.35-.7v-2.478c0-.3,0-1.094-1.691-1.094a.583.583,0,0,1,0-1.166,3.561,3.561,0,0,1,1.922.458,2.026,2.026,0,0,1,.936,1.8Zm0,0" transform="translate(-21.418 -271.752)" fill="#5fb7ff"/></svg>