<svg xmlns="http://www.w3.org/2000/svg" width="14.931" height="16.655" viewBox="0 0 14.931 16.655"><path d="M27.533,501.208a.65.65,0,0,1-.65.65H24.02a2.6,2.6,0,0,1-2.6-2.6v-11.45a2.605,2.605,0,0,1,2.6-2.6h8a2.605,2.605,0,0,1,2.6,2.6v6.213a.65.65,0,0,1-1.3,0v-6.213a1.3,1.3,0,0,0-1.3-1.3h-8a1.3,1.3,0,0,0-1.3,1.3v11.45a1.3,1.3,0,0,0,1.3,1.3h2.863a.65.65,0,0,1,.65.651Zm3.835-12.1h-6.7a.65.65,0,0,0,0,1.3h6.7a.65.65,0,1,0,0-1.3Zm.651,3.253a.651.651,0,0,0-.651-.651h-6.7a.65.65,0,0,0,0,1.3h6.7a.651.651,0,0,0,.651-.65Zm-7.352,1.952a.65.65,0,0,0,0,1.3h3.419a.65.65,0,1,0,0-1.3Zm11.563,4.765c-.022.033-.1.144-.149.205a9.141,9.141,0,0,1-1.438,1.482,4.087,4.087,0,0,1-5.566,0,9.141,9.141,0,0,1-1.438-1.482c-.049-.061-.127-.173-.15-.205a.649.649,0,0,1,0-.748c.023-.033.1-.144.15-.205a9.141,9.141,0,0,1,1.438-1.482,4.087,4.087,0,0,1,5.566,0,9.079,9.079,0,0,1,1.437,1.482c.049.061.128.173.15.205a.649.649,0,0,1,0,.748Zm-1.357-.374a4.226,4.226,0,0,0-3.013-1.854,2.077,2.077,0,1,0,0,3.708,4.226,4.226,0,0,0,3.013-1.854Zm-2.981-1.236a1.236,1.236,0,1,0,1.236,1.236,1.236,1.236,0,0,0-1.236-1.236Zm0,0" transform="translate(-21.418 -485.203)" fill="#999999"/></svg>