<svg xmlns="http://www.w3.org/2000/svg" width="16.071" height="17.649" viewBox="0 0 16.071 17.649"><path d="M7.238-931.547a.652.652,0,0,1-.156-.643l.777-2.56a.648.648,0,0,1,.163-.271l3.571-3.563a1.956,1.956,0,0,1,2.759,0,1.957,1.957,0,0,1,0,2.76l-3.564,3.556a.646.646,0,0,1-.285.167l-2.626.727a.631.631,0,0,1-.173.023A.653.653,0,0,1,7.238-931.547Zm1.818-2.669-.386,1.273,1.321-.366,2.395-2.391-.92-.92Zm3.456-3.448-.126.126.92.919.126-.125a.649.649,0,0,0,0-.92.65.65,0,0,0-.46-.19A.65.65,0,0,0,12.512-937.664ZM2.6-931.351a2.6,2.6,0,0,1-2.6-2.6V-945.4A2.6,2.6,0,0,1,2.6-948h8a2.6,2.6,0,0,1,2.6,2.6v4a.651.651,0,0,1-.652.65.65.65,0,0,1-.65-.65v-4a1.3,1.3,0,0,0-1.3-1.3h-8a1.3,1.3,0,0,0-1.3,1.3v11.447a1.3,1.3,0,0,0,1.3,1.3H4.777a.651.651,0,0,1,.651.65.651.651,0,0,1-.651.651Zm.647-6.243a.65.65,0,0,1-.651-.651.651.651,0,0,1,.651-.651H7.317a.651.651,0,0,1,.651.651.65.65,0,0,1-.651.651Zm0-2.6a.65.65,0,0,1-.651-.65.652.652,0,0,1,.651-.652h6.7a.652.652,0,0,1,.651.652.65.65,0,0,1-.651.65Zm0-2.6a.65.65,0,0,1-.651-.651.651.651,0,0,1,.651-.651h6.7a.651.651,0,0,1,.651.651.65.65,0,0,1-.651.651Z" transform="translate(0.5 948.5)" fill="#999999" stroke="rgba(0,0,0,0)" stroke-miterlimit="10" stroke-width="1"/></svg>