<svg xmlns="http://www.w3.org/2000/svg" width="15.937" height="12.874" viewBox="0 0 15.937 12.874"><path d="M12.936-936.182l-1.226-.584a.586.586,0,0,1-.276-.779.585.585,0,0,1,.778-.275l.752.359a6.257,6.257,0,0,0,.806-3.07,6.253,6.253,0,0,0-.555-2.59.584.584,0,0,1,.292-.772.584.584,0,0,1,.772.292,7.435,7.435,0,0,1,.658,3.071,7.443,7.443,0,0,1-1.265,4.145.583.583,0,0,1-.486.259A.589.589,0,0,1,12.936-936.182Zm-11.67-.2A7.436,7.436,0,0,1,0-940.531a7.418,7.418,0,0,1,2.187-5.281A7.418,7.418,0,0,1,7.468-948a7.4,7.4,0,0,1,3.07.659.582.582,0,0,1,.292.771.583.583,0,0,1-.771.292,6.225,6.225,0,0,0-2.006-.528v.878a.583.583,0,0,1-.584.583.583.583,0,0,1-.583-.583v-.878a6.313,6.313,0,0,0-4.793,2.991l.815.391a.585.585,0,0,1,.274.779.583.583,0,0,1-.526.33.59.59,0,0,1-.252-.057l-.825-.4a6.273,6.273,0,0,0-.41,2.237,6.249,6.249,0,0,0,.8,3.065l.72-.351a.585.585,0,0,1,.781.268.586.586,0,0,1-.269.781l-1.2.582a.575.575,0,0,1-.256.059A.581.581,0,0,1,1.265-936.385Zm4.965-2.908a1.752,1.752,0,0,1,0-2.476c.471-.47,4.849-3.463,5.722-4.058a.586.586,0,0,1,.743.069.584.584,0,0,1,.068.742c-.595.873-3.587,5.252-4.058,5.723a1.743,1.743,0,0,1-1.237.511A1.744,1.744,0,0,1,6.231-939.293Zm.825-1.651a.583.583,0,0,0,0,.824.582.582,0,0,0,.825,0c.181-.182,1.067-1.426,2.13-2.955C8.482-942.011,7.239-941.124,7.056-940.944Z" transform="translate(0.5 948.5)" fill="#fff" stroke="rgba(0,0,0,0)" stroke-miterlimit="10" stroke-width="1"/></svg>