<svg xmlns="http://www.w3.org/2000/svg" width="24.874" height="23.98" viewBox="0 0 24.874 23.98">
  <defs>
    <style>
      .cls-1 {
        fill: #ffebcc;
      }

      .cls-2 {
        fill: #3a3a3c;
      }
    </style>
  </defs>
  <g id="Group_12026" data-name="Group 12026" transform="translate(-667.854 -373.174)">
    <g id="Group_12179" data-name="Group 12179">
      <path id="Path_12838" data-name="Path 12838" class="cls-1" d="M676.937,376.984h-4.5a4.1,4.1,0,0,0-4.084,4.084v8.122a4.1,4.1,0,0,0,4.084,4.084h.969v3.382l3.382-3.382h11.355a4.1,4.1,0,0,0,4.084-4.084v-8.122a4.1,4.1,0,0,0-4.084-4.084h-1.3"/>
      <path id="Path_12985" data-name="Path 12985" class="cls-2" d="M673.406,397.155a.493.493,0,0,1-.191-.038.5.5,0,0,1-.309-.462v-2.882h-.469a4.611,4.611,0,0,1-4.583-4.582v-8.123a4.612,4.612,0,0,1,4.582-4.584h4.5a.5.5,0,0,1,0,1h-4.5a3.609,3.609,0,0,0-3.583,3.586v8.119a3.608,3.608,0,0,0,3.585,3.584h.967a.5.5,0,0,1,.5.5v2.175l2.529-2.528a.5.5,0,0,1,.354-.147h11.355a3.609,3.609,0,0,0,3.584-3.585v-8.12a3.61,3.61,0,0,0-3.586-3.584h-1.3a.5.5,0,0,1,0-1h1.3a4.614,4.614,0,0,1,4.584,4.582v8.123a4.613,4.613,0,0,1-4.582,4.584H677l-3.236,3.236A.5.5,0,0,1,673.406,397.155Z"/>
    </g>
    <g id="Group_12010" data-name="Group 12010">
      <g id="Group_12180" data-name="Group 12180">
        <path id="Path_12839" data-name="Path 12839" class="cls-1" d="M686.29,381.514v6.931a.34.34,0,0,1-.34.34H674.987a.34.34,0,0,1-.34-.34h0v-6.931"/>
        <path id="Path_12986" data-name="Path 12986" class="cls-2" d="M685.95,389.285H674.987a.841.841,0,0,1-.84-.84v-6.931a.5.5,0,0,1,1,0v6.771H685.79v-6.771a.5.5,0,0,1,1,0v6.931A.841.841,0,0,1,685.95,389.285Z"/>
      </g>
      <g id="Group_12181" data-name="Group 12181">
        <path id="Path_12840" data-name="Path 12840" class="cls-1" d="M683.549,375.925v-2.252h2.745v5.151"/>
        <path id="Path_12987" data-name="Path 12987" class="cls-2" d="M686.294,379.324a.5.5,0,0,1-.5-.5v-4.651h-1.745v1.752a.5.5,0,0,1-1,0v-2.252a.5.5,0,0,1,.5-.5h2.745a.5.5,0,0,1,.5.5v5.151A.5.5,0,0,1,686.294,379.324Z"/>
      </g>
      <g id="Group_12182" data-name="Group 12182">
        <path id="Path_12841" data-name="Path 12841" class="cls-1" d="M688.436,382.475l-2.141-2.261-5.418-5.72a.561.561,0,0,0-.793-.022l-.022.022-7.56,7.981"/>
        <path id="Path_12988" data-name="Path 12988" class="cls-2" d="M672.5,382.975a.5.5,0,0,1-.363-.844l7.56-7.981a1.11,1.11,0,0,1,.8-.331,1.05,1.05,0,0,1,.741.331l7.56,7.981a.5.5,0,0,1-.727.687l-7.559-7.981-7.649,7.981A.5.5,0,0,1,672.5,382.975Z"/>
      </g>
      <g id="Group_12183" data-name="Group 12183">
        <path id="Path_12842" data-name="Path 12842" class="cls-1" d="M682.339,388.785h-3.61v-3.432a1.8,1.8,0,0,1,1.8-1.8h0a1.8,1.8,0,0,1,1.8,1.795v.005Z"/>
        <path id="Path_12989" data-name="Path 12989" class="cls-2" d="M682.339,389.285h-3.61a.5.5,0,0,1-.5-.5v-3.432a2.3,2.3,0,0,1,2.3-2.3h.007a2.3,2.3,0,0,1,2.3,2.294l.005,3.437a.5.5,0,0,1-.5.5Zm-3.11-1h2.609l0-2.931a1.3,1.3,0,0,0-.383-.923,1.447,1.447,0,0,0-.92-.378,1.3,1.3,0,0,0-1.3,1.3Z"/>
      </g>
    </g>
  </g>
</svg>
