<svg xmlns="http://www.w3.org/2000/svg" xmlns:xlink="http://www.w3.org/1999/xlink" width="18.283" height="16.759" viewBox="0 0 18.283 16.759"><defs><clipPath id="a"><rect width="18.283" height="16.759" transform="translate(5971.858 3616.418)" fill="none"/></clipPath></defs><g transform="translate(-5971.858 -3616.418)"><g clip-path="url(#a)"><path d="M5981.952,3633.178h-1.9a.954.954,0,0,1-.952-.953v-3.237h-1.714a.572.572,0,0,1-.415-.965l3.619-3.809a.589.589,0,0,1,.828,0l3.619,3.809a.571.571,0,0,1-.415.965H5982.9v3.237a.954.954,0,0,1-.952.953Zm0,0" fill="#4cceac"/><path d="M5986.083,3619.41a5.8,5.8,0,0,0-10.718,1.449,3.87,3.87,0,0,0-.069,7.7,2.09,2.09,0,0,1,.566-1.583l3.619-3.81a2.184,2.184,0,0,1,3.037,0l3.619,3.809a2.09,2.09,0,0,1,.572,1.464,4.607,4.607,0,0,0-.626-9.028Zm0,0" fill="#4cceac"/></g></g></svg>