<svg id="Layer_1" data-name="Layer 1" xmlns="http://www.w3.org/2000/svg" xmlns:xlink="http://www.w3.org/1999/xlink" viewBox="0 0 1316 555"><defs><style>.cls-1,.cls-35{fill:none;}.cls-2{clip-path:url(#clip-path);}.cls-3{fill:url(#linear-gradient);}.cls-4{fill:url(#linear-gradient-2);}.cls-5{fill:url(#linear-gradient-3);}.cls-6{fill:url(#linear-gradient-4);}.cls-7{fill:url(#linear-gradient-5);}.cls-8{fill:url(#linear-gradient-6);}.cls-9{fill:url(#linear-gradient-7);}.cls-10{fill:url(#linear-gradient-8);}.cls-11{fill:url(#linear-gradient-9);}.cls-12{fill:url(#linear-gradient-10);}.cls-13{fill:url(#linear-gradient-11);}.cls-14{fill:url(#linear-gradient-12);}.cls-15{fill:url(#linear-gradient-13);}.cls-16{fill:url(#linear-gradient-14);}.cls-17{fill:url(#linear-gradient-15);}.cls-18{fill:url(#linear-gradient-16);}.cls-19{fill:url(#linear-gradient-17);}.cls-20{fill:url(#linear-gradient-18);}.cls-21{fill:url(#linear-gradient-19);}.cls-22{fill:url(#linear-gradient-20);}.cls-23{fill:url(#linear-gradient-21);}.cls-24{fill:url(#linear-gradient-22);}.cls-25{fill:url(#linear-gradient-23);}.cls-26{fill:url(#linear-gradient-24);}.cls-27{fill:url(#linear-gradient-25);}.cls-28{fill:url(#linear-gradient-26);}.cls-29{fill:url(#linear-gradient-27);}.cls-30{fill:url(#linear-gradient-28);}.cls-31{fill:url(#linear-gradient-29);}.cls-32{fill:url(#linear-gradient-30);}.cls-33{fill:url(#linear-gradient-31);}.cls-34{fill:url(#linear-gradient-32);}.cls-35{stroke-miterlimit:10;stroke-width:5.72px;stroke:url(#linear-gradient-33);}.cls-36{fill:url(#linear-gradient-34);}.cls-37{fill:url(#linear-gradient-35);}.cls-38{fill:url(#linear-gradient-36);}.cls-39{fill:url(#linear-gradient-37);}.cls-40{fill:url(#linear-gradient-38);}.cls-41{fill:url(#linear-gradient-39);}.cls-42{fill:url(#linear-gradient-40);}.cls-43{fill:url(#linear-gradient-41);}.cls-44{fill:url(#linear-gradient-42);}.cls-45{fill:url(#linear-gradient-43);}.cls-46{fill:url(#linear-gradient-44);}.cls-47{fill:url(#linear-gradient-45);}.cls-48{fill:url(#linear-gradient-46);}.cls-49{fill:url(#linear-gradient-47);}.cls-50{fill:url(#linear-gradient-48);}.cls-51{fill:url(#linear-gradient-49);}.cls-52{fill:url(#linear-gradient-50);}.cls-53{fill:url(#linear-gradient-51);}.cls-54{fill:url(#linear-gradient-52);}.cls-55{fill:url(#linear-gradient-53);}.cls-56{fill:url(#linear-gradient-54);}.cls-57{fill:url(#linear-gradient-55);}.cls-58{fill:url(#linear-gradient-56);}.cls-59{fill:url(#linear-gradient-57);}.cls-60{fill:url(#linear-gradient-58);}.cls-61{fill:url(#linear-gradient-59);}.cls-62{fill:url(#linear-gradient-60);}.cls-63{fill:url(#linear-gradient-61);}.cls-64{fill:url(#linear-gradient-62);}.cls-65{fill:url(#linear-gradient-63);}.cls-66{fill:url(#linear-gradient-64);}.cls-67{fill:url(#linear-gradient-65);}.cls-68{fill:url(#linear-gradient-66);}.cls-69{fill:url(#linear-gradient-67);}.cls-70{fill:url(#linear-gradient-68);}.cls-71{fill:url(#linear-gradient-69);}.cls-72{fill:url(#linear-gradient-70);}.cls-73{fill:url(#linear-gradient-71);}.cls-74{fill:url(#linear-gradient-72);}.cls-75{fill:url(#linear-gradient-73);}.cls-76{fill:url(#linear-gradient-74);}.cls-77{fill:url(#linear-gradient-75);}.cls-78{fill:url(#linear-gradient-76);}.cls-79{fill:url(#linear-gradient-77);}.cls-80{fill:url(#linear-gradient-78);}.cls-81{fill:url(#linear-gradient-79);}.cls-82{fill:url(#linear-gradient-80);}.cls-83{fill:url(#linear-gradient-81);}.cls-84{fill:url(#linear-gradient-82);}.cls-85{fill:url(#linear-gradient-83);}.cls-86{fill:url(#linear-gradient-84);}.cls-87{fill:url(#linear-gradient-85);}.cls-88{fill:url(#linear-gradient-86);}.cls-89{fill:url(#linear-gradient-87);}.cls-90{fill:url(#linear-gradient-88);}.cls-91{fill:url(#linear-gradient-89);}.cls-92{fill:url(#linear-gradient-90);}.cls-93{fill:url(#linear-gradient-91);}.cls-94{fill:url(#linear-gradient-92);}.cls-95{fill:url(#linear-gradient-93);}.cls-96{fill:url(#linear-gradient-94);}.cls-97{fill:url(#linear-gradient-95);}.cls-98{fill:url(#linear-gradient-96);}.cls-99{fill:url(#linear-gradient-98);}.cls-100{fill:url(#linear-gradient-100);}.cls-101{fill:url(#linear-gradient-101);}.cls-102{fill:url(#linear-gradient-102);}.cls-103{fill:url(#linear-gradient-103);}.cls-104{fill:url(#linear-gradient-104);}.cls-105{fill:url(#linear-gradient-105);}.cls-106{fill:url(#linear-gradient-106);}.cls-107{fill:url(#linear-gradient-107);}.cls-108{fill:url(#linear-gradient-109);}.cls-109{fill:url(#linear-gradient-111);}.cls-110{fill:url(#linear-gradient-112);}.cls-111{fill:url(#linear-gradient-113);}.cls-112{fill:url(#linear-gradient-114);}.cls-113{fill:url(#linear-gradient-115);}.cls-114{fill:url(#linear-gradient-116);}.cls-115{fill:url(#linear-gradient-117);}.cls-116{fill:url(#linear-gradient-118);}.cls-117{fill:url(#linear-gradient-119);}.cls-118{fill:url(#linear-gradient-120);}.cls-119{fill:url(#linear-gradient-121);}.cls-120{fill:url(#linear-gradient-122);}.cls-121{fill:url(#linear-gradient-123);}.cls-122{fill:url(#linear-gradient-124);}.cls-123{fill:url(#linear-gradient-125);}.cls-124{fill:url(#linear-gradient-126);}.cls-125{fill:url(#linear-gradient-127);}.cls-126{fill:url(#linear-gradient-128);}.cls-127{fill:url(#linear-gradient-131);}.cls-128{fill:url(#linear-gradient-132);}.cls-129{fill:url(#linear-gradient-133);}</style><clipPath id="clip-path"><circle class="cls-1" cx="809.26" cy="344.84" r="96.75"/></clipPath><linearGradient id="linear-gradient" x1="699.77" y1="552.44" x2="699.77" y2="258.51" gradientTransform="translate(191.27 -246.78) rotate(23.09)" gradientUnits="userSpaceOnUse"><stop offset="0" stop-color="#fbb24e"/><stop offset="0.21" stop-color="#d9a154"/><stop offset="0.75" stop-color="#877761"/><stop offset="1" stop-color="#666"/></linearGradient><linearGradient id="linear-gradient-2" x1="715.33" y1="552.44" x2="715.33" y2="258.51" gradientTransform="translate(192.51 -252.88) rotate(23.09)" xlink:href="#linear-gradient"/><linearGradient id="linear-gradient-3" x1="730.89" y1="552.44" x2="730.89" y2="258.51" gradientTransform="translate(193.76 -258.98) rotate(23.09)" xlink:href="#linear-gradient"/><linearGradient id="linear-gradient-4" x1="746.46" y1="552.44" x2="746.46" y2="258.51" gradientTransform="translate(195.01 -265.09) rotate(23.09)" xlink:href="#linear-gradient"/><linearGradient id="linear-gradient-5" x1="762.02" y1="552.44" x2="762.02" y2="258.51" gradientTransform="translate(196.25 -271.19) rotate(23.09)" xlink:href="#linear-gradient"/><linearGradient id="linear-gradient-6" x1="777.58" y1="552.44" x2="777.58" y2="258.51" gradientTransform="translate(197.5 -277.29) rotate(23.09)" xlink:href="#linear-gradient"/><linearGradient id="linear-gradient-7" x1="793.14" y1="552.44" x2="793.14" y2="258.51" gradientTransform="translate(198.74 -283.4) rotate(23.09)" xlink:href="#linear-gradient"/><linearGradient id="linear-gradient-8" x1="808.71" y1="552.44" x2="808.71" y2="258.51" gradientTransform="translate(199.99 -289.5) rotate(23.09)" xlink:href="#linear-gradient"/><linearGradient id="linear-gradient-9" x1="824.27" y1="552.44" x2="824.27" y2="258.51" gradientTransform="translate(201.24 -295.6) rotate(23.09)" xlink:href="#linear-gradient"/><linearGradient id="linear-gradient-10" x1="839.83" y1="552.44" x2="839.83" y2="258.51" gradientTransform="translate(202.48 -301.7) rotate(23.09)" xlink:href="#linear-gradient"/><linearGradient id="linear-gradient-11" x1="855.39" y1="552.44" x2="855.39" y2="258.51" gradientTransform="translate(203.73 -307.8) rotate(23.09)" xlink:href="#linear-gradient"/><linearGradient id="linear-gradient-12" x1="870.96" y1="552.44" x2="870.96" y2="258.51" gradientTransform="translate(204.98 -313.91) rotate(23.09)" xlink:href="#linear-gradient"/><linearGradient id="linear-gradient-13" x1="886.52" y1="552.44" x2="886.52" y2="258.51" gradientTransform="translate(206.22 -320.01) rotate(23.09)" xlink:href="#linear-gradient"/><linearGradient id="linear-gradient-14" x1="902.08" y1="552.44" x2="902.08" y2="258.51" gradientTransform="translate(207.47 -326.11) rotate(23.09)" xlink:href="#linear-gradient"/><linearGradient id="linear-gradient-15" x1="917.64" y1="552.44" x2="917.64" y2="258.51" gradientTransform="translate(208.72 -332.22) rotate(23.09)" xlink:href="#linear-gradient"/><linearGradient id="linear-gradient-16" x1="933.21" y1="552.44" x2="933.21" y2="258.51" gradientTransform="translate(209.96 -338.32) rotate(23.09)" xlink:href="#linear-gradient"/><linearGradient id="linear-gradient-17" x1="933.21" y1="552.44" x2="933.21" y2="258.51" gradientTransform="translate(884.69 -648.86) rotate(66.92)" xlink:href="#linear-gradient"/><linearGradient id="linear-gradient-18" x1="917.64" y1="552.44" x2="917.64" y2="258.51" gradientTransform="translate(875.22 -634.54) rotate(66.92)" xlink:href="#linear-gradient"/><linearGradient id="linear-gradient-19" x1="902.08" y1="552.44" x2="902.08" y2="258.51" gradientTransform="translate(865.75 -620.22) rotate(66.92)" xlink:href="#linear-gradient"/><linearGradient id="linear-gradient-20" x1="886.52" y1="552.44" x2="886.52" y2="258.51" gradientTransform="translate(856.29 -605.9) rotate(66.92)" xlink:href="#linear-gradient"/><linearGradient id="linear-gradient-21" x1="870.96" y1="552.44" x2="870.96" y2="258.51" gradientTransform="translate(846.83 -591.59) rotate(66.92)" xlink:href="#linear-gradient"/><linearGradient id="linear-gradient-22" x1="855.39" y1="552.44" x2="855.39" y2="258.51" gradientTransform="translate(837.37 -577.27) rotate(66.92)" xlink:href="#linear-gradient"/><linearGradient id="linear-gradient-23" x1="839.83" y1="552.44" x2="839.83" y2="258.51" gradientTransform="translate(827.9 -562.95) rotate(66.92)" xlink:href="#linear-gradient"/><linearGradient id="linear-gradient-24" x1="824.27" y1="552.44" x2="824.27" y2="258.51" gradientTransform="translate(818.44 -548.63) rotate(66.92)" xlink:href="#linear-gradient"/><linearGradient id="linear-gradient-25" x1="808.71" y1="552.44" x2="808.71" y2="258.51" gradientTransform="translate(808.98 -534.32) rotate(66.92)" xlink:href="#linear-gradient"/><linearGradient id="linear-gradient-26" x1="793.14" y1="552.44" x2="793.14" y2="258.51" gradientTransform="translate(799.52 -520) rotate(66.92)" xlink:href="#linear-gradient"/><linearGradient id="linear-gradient-27" x1="777.58" y1="552.44" x2="777.58" y2="258.51" gradientTransform="translate(790.05 -505.68) rotate(66.92)" xlink:href="#linear-gradient"/><linearGradient id="linear-gradient-28" x1="762.02" y1="552.44" x2="762.02" y2="258.51" gradientTransform="translate(780.59 -491.36) rotate(66.92)" xlink:href="#linear-gradient"/><linearGradient id="linear-gradient-29" x1="746.46" y1="552.44" x2="746.46" y2="258.51" gradientTransform="translate(771.13 -477.05) rotate(66.92)" xlink:href="#linear-gradient"/><linearGradient id="linear-gradient-30" x1="730.89" y1="552.44" x2="730.89" y2="258.51" gradientTransform="translate(761.66 -462.73) rotate(66.92)" xlink:href="#linear-gradient"/><linearGradient id="linear-gradient-31" x1="715.33" y1="552.44" x2="715.33" y2="258.51" gradientTransform="translate(752.21 -448.41) rotate(66.92)" xlink:href="#linear-gradient"/><linearGradient id="linear-gradient-32" x1="699.77" y1="552.44" x2="699.77" y2="258.51" gradientTransform="translate(742.74 -434.1) rotate(66.92)" xlink:href="#linear-gradient"/><linearGradient id="linear-gradient-33" x1="809.26" y1="444.57" x2="809.26" y2="245.12" gradientUnits="userSpaceOnUse"><stop offset="0"/><stop offset="0.11" stop-color="#242424"/><stop offset="0.25" stop-color="#4f4f4f"/><stop offset="0.4" stop-color="#737373"/><stop offset="0.55" stop-color="#8f8f8f"/><stop offset="0.7" stop-color="#a3a3a3"/><stop offset="0.85" stop-color="#afafaf"/><stop offset="1" stop-color="#b3b3b3"/></linearGradient><linearGradient id="linear-gradient-34" x1="658.13" y1="-43.59" x2="658.13" y2="650.09" gradientUnits="userSpaceOnUse"><stop offset="0"/><stop offset="0.24" stop-color="#030303"/><stop offset="0.38" stop-color="#0b0b0b"/><stop offset="0.51" stop-color="#1a1a1a"/><stop offset="0.61" stop-color="#2e2e2e"/><stop offset="0.71" stop-color="#494949"/><stop offset="0.8" stop-color="#696969"/><stop offset="0.89" stop-color="#909090"/><stop offset="0.97" stop-color="#bcbcbc"/><stop offset="1" stop-color="#ccc"/></linearGradient><linearGradient id="linear-gradient-35" x1="860.62" y1="28.47" x2="860.62" y2="621.59" xlink:href="#linear-gradient-34"/><linearGradient id="linear-gradient-36" x1="860.62" y1="28.47" x2="860.62" y2="621.59" xlink:href="#linear-gradient-34"/><linearGradient id="linear-gradient-37" x1="860.62" y1="28.47" x2="860.62" y2="621.58" xlink:href="#linear-gradient-34"/><linearGradient id="linear-gradient-38" x1="860.62" y1="28.47" x2="860.62" y2="621.59" xlink:href="#linear-gradient-34"/><linearGradient id="linear-gradient-39" x1="860.62" y1="28.47" x2="860.62" y2="621.59" xlink:href="#linear-gradient-34"/><linearGradient id="linear-gradient-40" x1="860.62" y1="28.47" x2="860.62" y2="621.59" xlink:href="#linear-gradient-34"/><linearGradient id="linear-gradient-41" x1="1037.11" y1="28.47" x2="1037.11" y2="621.59" xlink:href="#linear-gradient-34"/><linearGradient id="linear-gradient-42" x1="1037.11" y1="28.47" x2="1037.11" y2="621.59" xlink:href="#linear-gradient-34"/><linearGradient id="linear-gradient-43" x1="936.28" y1="28.47" x2="936.28" y2="621.59" xlink:href="#linear-gradient-34"/><linearGradient id="linear-gradient-44" x1="936.28" y1="28.47" x2="936.28" y2="621.59" xlink:href="#linear-gradient-34"/><linearGradient id="linear-gradient-45" x1="1137.94" y1="28.47" x2="1137.94" y2="621.59" xlink:href="#linear-gradient-34"/><linearGradient id="linear-gradient-46" x1="1137.94" y1="28.47" x2="1137.94" y2="621.59" xlink:href="#linear-gradient-34"/><linearGradient id="linear-gradient-47" x1="1095.73" y1="28.47" x2="1095.73" y2="621.59" xlink:href="#linear-gradient-34"/><linearGradient id="linear-gradient-48" x1="978.48" y1="28.47" x2="978.48" y2="621.59" xlink:href="#linear-gradient-34"/><linearGradient id="linear-gradient-49" x1="892.34" y1="28.47" x2="892.34" y2="621.59" xlink:href="#linear-gradient-34"/><linearGradient id="linear-gradient-50" x1="892.34" y1="28.47" x2="892.34" y2="621.59" xlink:href="#linear-gradient-34"/><linearGradient id="linear-gradient-51" x1="892.34" y1="28.47" x2="892.34" y2="621.59" xlink:href="#linear-gradient-34"/><linearGradient id="linear-gradient-52" x1="1181.88" y1="28.47" x2="1181.88" y2="621.59" xlink:href="#linear-gradient-34"/><linearGradient id="linear-gradient-53" x1="1181.88" y1="28.47" x2="1181.88" y2="621.59" xlink:href="#linear-gradient-34"/><linearGradient id="linear-gradient-54" x1="1181.88" y1="28.47" x2="1181.88" y2="621.59" xlink:href="#linear-gradient-34"/><linearGradient id="linear-gradient-55" x1="764.53" y1="28.47" x2="764.53" y2="621.59" xlink:href="#linear-gradient-34"/><linearGradient id="linear-gradient-56" x1="697.22" y1="28.47" x2="697.22" y2="621.59" xlink:href="#linear-gradient-34"/><linearGradient id="linear-gradient-57" x1="676.92" y1="28.47" x2="676.92" y2="621.59" xlink:href="#linear-gradient-34"/><linearGradient id="linear-gradient-58" x1="679.41" y1="28.46" x2="679.41" y2="621.6" xlink:href="#linear-gradient-34"/><linearGradient id="linear-gradient-59" x1="672.7" y1="28.46" x2="672.7" y2="621.6" xlink:href="#linear-gradient-34"/><linearGradient id="linear-gradient-60" x1="682.1" y1="28.47" x2="682.1" y2="621.59" xlink:href="#linear-gradient-34"/><linearGradient id="linear-gradient-61" x1="687.12" y1="28.46" x2="687.12" y2="621.6" xlink:href="#linear-gradient-34"/><linearGradient id="linear-gradient-62" x1="670.95" y1="28.47" x2="670.95" y2="621.59" xlink:href="#linear-gradient-34"/><linearGradient id="linear-gradient-63" x1="684.68" y1="28.47" x2="684.68" y2="621.59" xlink:href="#linear-gradient-34"/><linearGradient id="linear-gradient-64" x1="665.28" y1="28.47" x2="665.28" y2="621.6" xlink:href="#linear-gradient-34"/><linearGradient id="linear-gradient-65" x1="665.63" y1="28.47" x2="665.63" y2="621.59" xlink:href="#linear-gradient-34"/><linearGradient id="linear-gradient-66" x1="689.43" y1="28.47" x2="689.43" y2="621.59" xlink:href="#linear-gradient-34"/><linearGradient id="linear-gradient-67" x1="668.13" y1="28.46" x2="668.13" y2="621.6" xlink:href="#linear-gradient-34"/><linearGradient id="linear-gradient-68" x1="666.22" y1="28.47" x2="666.22" y2="621.6" xlink:href="#linear-gradient-34"/><linearGradient id="linear-gradient-69" x1="669.43" y1="28.47" x2="669.43" y2="621.59" xlink:href="#linear-gradient-34"/><linearGradient id="linear-gradient-70" x1="667.07" y1="28.47" x2="667.07" y2="621.59" xlink:href="#linear-gradient-34"/><linearGradient id="linear-gradient-71" x1="674.69" y1="28.47" x2="674.69" y2="621.59" xlink:href="#linear-gradient-34"/><linearGradient id="linear-gradient-72" x1="712.91" y1="28.47" x2="712.91" y2="621.59" xlink:href="#linear-gradient-34"/><linearGradient id="linear-gradient-73" x1="711.07" y1="28.46" x2="711.07" y2="621.6" xlink:href="#linear-gradient-34"/><linearGradient id="linear-gradient-74" x1="709.22" y1="28.46" x2="709.22" y2="621.6" xlink:href="#linear-gradient-34"/><linearGradient id="linear-gradient-75" x1="665.24" y1="28.47" x2="665.24" y2="621.6" xlink:href="#linear-gradient-34"/><linearGradient id="linear-gradient-76" x1="714.74" y1="28.47" x2="714.74" y2="621.59" xlink:href="#linear-gradient-34"/><linearGradient id="linear-gradient-77" x1="707.36" y1="28.47" x2="707.36" y2="621.59" xlink:href="#linear-gradient-34"/><linearGradient id="linear-gradient-78" x1="716.61" y1="28.47" x2="716.61" y2="621.59" xlink:href="#linear-gradient-34"/><linearGradient id="linear-gradient-79" x1="693.78" y1="28.46" x2="693.78" y2="621.6" xlink:href="#linear-gradient-34"/><linearGradient id="linear-gradient-80" x1="695.85" y1="28.47" x2="695.85" y2="621.59" xlink:href="#linear-gradient-34"/><linearGradient id="linear-gradient-81" x1="691.65" y1="28.47" x2="691.65" y2="621.59" xlink:href="#linear-gradient-34"/><linearGradient id="linear-gradient-82" x1="697.85" y1="28.47" x2="697.85" y2="621.59" xlink:href="#linear-gradient-34"/><linearGradient id="linear-gradient-83" x1="699.81" y1="28.46" x2="699.81" y2="621.6" xlink:href="#linear-gradient-34"/><linearGradient id="linear-gradient-84" x1="705.5" y1="28.47" x2="705.5" y2="621.59" xlink:href="#linear-gradient-34"/><linearGradient id="linear-gradient-85" x1="703.63" y1="28.47" x2="703.63" y2="621.59" xlink:href="#linear-gradient-34"/><linearGradient id="linear-gradient-86" x1="701.74" y1="28.47" x2="701.74" y2="621.59" xlink:href="#linear-gradient-34"/><linearGradient id="linear-gradient-87" x1="552.33" y1="28.47" x2="552.33" y2="621.6" xlink:href="#linear-gradient-34"/><linearGradient id="linear-gradient-88" x1="552.33" y1="28.47" x2="552.33" y2="621.6" xlink:href="#linear-gradient-34"/><linearGradient id="linear-gradient-89" x1="552.33" y1="28.47" x2="552.33" y2="621.6" xlink:href="#linear-gradient-34"/><linearGradient id="linear-gradient-90" x1="552.33" y1="28.47" x2="552.33" y2="621.59" xlink:href="#linear-gradient-34"/><linearGradient id="linear-gradient-91" x1="552.33" y1="28.47" x2="552.33" y2="621.59" xlink:href="#linear-gradient-34"/><linearGradient id="linear-gradient-92" x1="552.33" y1="28.47" x2="552.33" y2="621.59" xlink:href="#linear-gradient-34"/><linearGradient id="linear-gradient-93" x1="552.33" y1="28.47" x2="552.33" y2="621.59" xlink:href="#linear-gradient-34"/><linearGradient id="linear-gradient-94" x1="552.33" y1="28.47" x2="552.33" y2="621.59" xlink:href="#linear-gradient-34"/><linearGradient id="linear-gradient-95" x1="552.33" y1="28.47" x2="552.33" y2="621.59" xlink:href="#linear-gradient-34"/><linearGradient id="linear-gradient-96" x1="552.33" y1="28.47" x2="552.33" y2="621.6" xlink:href="#linear-gradient-34"/><linearGradient id="linear-gradient-98" x1="552.33" y1="28.47" x2="552.33" y2="621.6" xlink:href="#linear-gradient-34"/><linearGradient id="linear-gradient-100" x1="552.33" y1="28.47" x2="552.33" y2="621.59" xlink:href="#linear-gradient-34"/><linearGradient id="linear-gradient-101" x1="552.33" y1="28.47" x2="552.33" y2="621.59" xlink:href="#linear-gradient-34"/><linearGradient id="linear-gradient-102" x1="552.33" y1="28.47" x2="552.33" y2="621.59" xlink:href="#linear-gradient-34"/><linearGradient id="linear-gradient-103" x1="552.33" y1="28.47" x2="552.33" y2="621.59" xlink:href="#linear-gradient-34"/><linearGradient id="linear-gradient-104" x1="552.33" y1="28.47" x2="552.33" y2="621.59" xlink:href="#linear-gradient-34"/><linearGradient id="linear-gradient-105" x1="552.33" y1="28.47" x2="552.33" y2="621.59" xlink:href="#linear-gradient-34"/><linearGradient id="linear-gradient-106" x1="552.33" y1="28.46" x2="552.33" y2="621.6" xlink:href="#linear-gradient-34"/><linearGradient id="linear-gradient-107" x1="552.33" y1="28.46" x2="552.33" y2="621.6" xlink:href="#linear-gradient-34"/><linearGradient id="linear-gradient-109" x1="552.33" y1="28.46" x2="552.33" y2="621.6" xlink:href="#linear-gradient-34"/><linearGradient id="linear-gradient-111" x1="552.33" y1="28.47" x2="552.33" y2="621.59" xlink:href="#linear-gradient-34"/><linearGradient id="linear-gradient-112" x1="552.33" y1="28.47" x2="552.33" y2="621.59" xlink:href="#linear-gradient-34"/><linearGradient id="linear-gradient-113" x1="552.33" y1="28.47" x2="552.33" y2="621.59" xlink:href="#linear-gradient-34"/><linearGradient id="linear-gradient-114" x1="552.33" y1="28.47" x2="552.33" y2="621.59" xlink:href="#linear-gradient-34"/><linearGradient id="linear-gradient-115" x1="552.33" y1="28.47" x2="552.33" y2="621.59" xlink:href="#linear-gradient-34"/><linearGradient id="linear-gradient-116" x1="552.33" y1="28.47" x2="552.33" y2="621.59" xlink:href="#linear-gradient-34"/><linearGradient id="linear-gradient-117" x1="552.33" y1="28.46" x2="552.33" y2="621.6" xlink:href="#linear-gradient-34"/><linearGradient id="linear-gradient-118" x1="552.33" y1="28.46" x2="552.33" y2="621.6" xlink:href="#linear-gradient-34"/><linearGradient id="linear-gradient-119" x1="552.33" y1="28.46" x2="552.33" y2="621.6" xlink:href="#linear-gradient-34"/><linearGradient id="linear-gradient-120" x1="552.33" y1="28.46" x2="552.33" y2="621.6" xlink:href="#linear-gradient-34"/><linearGradient id="linear-gradient-121" x1="552.33" y1="28.47" x2="552.33" y2="621.59" xlink:href="#linear-gradient-34"/><linearGradient id="linear-gradient-122" x1="552.33" y1="28.47" x2="552.33" y2="621.59" xlink:href="#linear-gradient-34"/><linearGradient id="linear-gradient-123" x1="552.33" y1="28.47" x2="552.33" y2="621.59" xlink:href="#linear-gradient-34"/><linearGradient id="linear-gradient-124" x1="552.33" y1="28.47" x2="552.33" y2="621.59" xlink:href="#linear-gradient-34"/><linearGradient id="linear-gradient-125" x1="552.33" y1="28.47" x2="552.33" y2="621.59" xlink:href="#linear-gradient-34"/><linearGradient id="linear-gradient-126" x1="552.33" y1="28.47" x2="552.33" y2="621.59" xlink:href="#linear-gradient-34"/><linearGradient id="linear-gradient-127" x1="552.33" y1="28.46" x2="552.33" y2="621.6" xlink:href="#linear-gradient-34"/><linearGradient id="linear-gradient-128" x1="552.33" y1="28.46" x2="552.33" y2="621.59" xlink:href="#linear-gradient-34"/><linearGradient id="linear-gradient-131" x1="511.21" y1="28.47" x2="511.21" y2="621.59" xlink:href="#linear-gradient-34"/><linearGradient id="linear-gradient-132" x1="593.45" y1="28.47" x2="593.45" y2="621.59" xlink:href="#linear-gradient-34"/><linearGradient id="linear-gradient-133" x1="870.85" y1="28.47" x2="870.85" y2="621.59" xlink:href="#linear-gradient-34"/></defs><circle class="cls-1" cx="809.26" cy="344.84" r="96.75"/><g class="cls-2"><rect class="cls-3" x="698.29" y="195.03" width="2.96" height="299.63" transform="translate(-79.18 302.02) rotate(-23.09)"/><rect class="cls-4" x="713.85" y="195.03" width="2.96" height="299.63" transform="translate(-77.93 308.12) rotate(-23.09)"/><rect class="cls-5" x="729.41" y="195.03" width="2.96" height="299.63" transform="matrix(0.92, -0.39, 0.39, 0.92, -76.69, 314.22)"/><rect class="cls-6" x="744.97" y="195.03" width="2.96" height="299.63" transform="translate(-75.44 320.32) rotate(-23.09)"/><rect class="cls-7" x="760.54" y="195.03" width="2.96" height="299.63" transform="translate(-74.19 326.43) rotate(-23.09)"/><rect class="cls-8" x="776.1" y="195.03" width="2.96" height="299.63" transform="translate(-72.95 332.53) rotate(-23.09)"/><rect class="cls-9" x="791.66" y="195.03" width="2.96" height="299.63" transform="translate(-71.7 338.63) rotate(-23.09)"/><rect class="cls-10" x="807.23" y="195.03" width="2.96" height="299.63" transform="translate(-70.45 344.73) rotate(-23.09)"/><rect class="cls-11" x="822.79" y="195.03" width="2.96" height="299.63" transform="translate(-69.21 350.84) rotate(-23.09)"/><rect class="cls-12" x="838.35" y="195.03" width="2.96" height="299.63" transform="translate(-67.96 356.94) rotate(-23.09)"/><rect class="cls-13" x="853.91" y="195.03" width="2.96" height="299.63" transform="translate(-66.72 363.04) rotate(-23.09)"/><rect class="cls-14" x="869.47" y="195.03" width="2.96" height="299.63" transform="translate(-65.47 369.14) rotate(-23.09)"/><rect class="cls-15" x="885.04" y="195.03" width="2.96" height="299.63" transform="translate(-64.22 375.25) rotate(-23.09)"/><rect class="cls-16" x="900.6" y="195.03" width="2.96" height="299.63" transform="translate(-62.98 381.35) rotate(-23.09)"/><rect class="cls-17" x="916.16" y="195.03" width="2.96" height="299.63" transform="translate(-61.73 387.45) rotate(-23.09)"/><rect class="cls-18" x="931.73" y="195.03" width="2.96" height="299.63" transform="translate(-60.48 393.55) rotate(-23.09)"/><rect class="cls-19" x="783.39" y="343.36" width="299.63" height="2.96" transform="translate(250.19 1068.22) rotate(-66.92)"/><rect class="cls-20" x="767.83" y="343.36" width="299.63" height="2.96" transform="translate(240.72 1053.9) rotate(-66.92)"/><rect class="cls-21" x="752.27" y="343.36" width="299.63" height="2.96" transform="translate(231.25 1039.58) rotate(-66.92)"/><rect class="cls-22" x="736.7" y="343.36" width="299.63" height="2.96" transform="translate(221.79 1025.26) rotate(-66.92)"/><rect class="cls-23" x="721.14" y="343.36" width="299.63" height="2.96" transform="translate(212.33 1010.94) rotate(-66.92)"/><rect class="cls-24" x="705.58" y="343.36" width="299.63" height="2.96" transform="translate(202.86 996.63) rotate(-66.92)"/><rect class="cls-25" x="690.02" y="343.36" width="299.63" height="2.96" transform="translate(193.4 982.31) rotate(-66.92)"/><rect class="cls-26" x="674.45" y="343.36" width="299.63" height="2.96" transform="translate(183.94 967.99) rotate(-66.92)"/><rect class="cls-27" x="658.89" y="343.36" width="299.63" height="2.96" transform="translate(174.48 953.68) rotate(-66.92)"/><rect class="cls-28" x="643.33" y="343.36" width="299.63" height="2.96" transform="translate(165.01 939.36) rotate(-66.92)"/><rect class="cls-29" x="627.76" y="343.36" width="299.63" height="2.96" transform="translate(155.55 925.04) rotate(-66.92)"/><rect class="cls-30" x="612.2" y="343.36" width="299.63" height="2.96" transform="translate(146.09 910.72) rotate(-66.92)"/><rect class="cls-31" x="596.64" y="343.36" width="299.63" height="2.96" transform="translate(136.63 896.41) rotate(-66.92)"/><rect class="cls-32" x="581.08" y="343.36" width="299.63" height="2.96" transform="translate(127.16 882.09) rotate(-66.92)"/><rect class="cls-33" x="565.51" y="343.36" width="299.63" height="2.96" transform="translate(117.71 867.78) rotate(-66.92)"/><rect class="cls-34" x="549.95" y="343.36" width="299.63" height="2.96" transform="translate(108.24 853.45) rotate(-66.92)"/></g><circle class="cls-35" cx="809.26" cy="344.84" r="96.87"/><path class="cls-36" d="M.13,453.51H1215a101.13,101.13,0,0,1,101.13,101.13v0a0,0,0,0,1,0,0H.13a0,0,0,0,1,0,0V453.51a0,0,0,0,1,0,0Z"/><rect class="cls-37" x="848.64" y="182.76" width="23.96" height="273.36"/><rect class="cls-38" x="843.85" y="173.2" width="33.55" height="39.96"/><rect class="cls-39" x="841.21" y="170.17" width="38.82" height="3.32"/><rect class="cls-40" x="847.68" y="162.24" width="25.88" height="2.88"/><path class="cls-41" d="M863.5,140.83h-5.75c0,26.59-13.9,32.37-13.9,32.37H877.4S863.5,167.42,863.5,140.83Z"/><path class="cls-42" d="M860.62,125.91c-2,14.92-6.71,19.23-6.71,19.23h13.42S862.6,140.83,860.62,125.91Z"/><path class="cls-43" d="M1070.54,356.3c0,22.54-15,33-33.43,33s-33.44-10.46-33.44-33,33.44-40.82,33.44-40.82S1070.54,333.76,1070.54,356.3Z"/><path class="cls-44" d="M1060.81,370.65h-47.4l-35.74,33.41v52.06h50V423.58a9.46,9.46,0,0,1,18.92,0v32.54h50V404.06Zm-46.13,72.55h-12.16V422.67h12.16Zm57,0h-12.17V422.67h12.17Z"/><path class="cls-45" d="M958.39,390.12c0,14.9-9.9,21.82-22.11,21.82s-22.11-6.92-22.11-21.82,22.11-27,22.11-27S958.39,375.22,958.39,390.12Z"/><path class="cls-46" d="M952,399.61H920.61L897,421.7v34.42h78.6V421.7Zm-37.31,44.67h-4.76V429.65h4.76Zm9.61,0h-4.76V429.65h4.76Zm9.61,0h-4.77V429.65h4.77Zm9.6,0H938.7V429.65h4.76Zm9.61,0h-4.76V429.65h4.76Zm9.61,0h-4.76V429.65h4.76Z"/><path class="cls-47" d="M1160,390.12c0,14.9-9.9,21.82-22.1,21.82s-22.11-6.92-22.11-21.82,22.11-27,22.11-27S1160,375.22,1160,390.12Z"/><path class="cls-48" d="M1153.6,399.61h-31.33l-23.64,22.09v34.42h78.61V421.7Zm-37.31,44.67h-4.76V429.65h4.76Zm9.61,0h-4.76V429.65h4.76Zm9.61,0h-4.76V429.65h4.76Zm9.61,0h-4.76V429.65h4.76Zm9.61,0H1150V429.65h4.76Zm9.61,0h-4.76V429.65h4.76Z"/><rect class="cls-49" x="1090.5" y="386.18" width="10.47" height="69.94"/><rect class="cls-50" x="973.25" y="386.18" width="10.47" height="69.94"/><rect class="cls-51" x="887.11" y="369.76" width="10.45" height="86.36"/><rect class="cls-52" x="889.2" y="339.42" width="6.27" height="86.36"/><rect class="cls-53" x="890.77" y="318.9" width="3.13" height="86.36"/><rect class="cls-54" x="1176.66" y="369.76" width="10.45" height="86.36"/><rect class="cls-55" x="1178.74" y="339.42" width="6.27" height="86.36"/><rect class="cls-56" x="1180.31" y="318.9" width="3.13" height="86.36"/><path class="cls-57" d="M855.13,456.12V422.56s-79.42-23.48-87.25-201.33h-94s28.2,81.64,41.38,132c12.31,47-10.06,102.9-10.06,102.9Z"/><path class="cls-58" d="M772.1,456.12H667.49l.39-2.81c.14-1,13.7-105.07-23.2-184.86C618,210.71,618,159,618,158.5V156h94.65l-.15,2.63c-10,170.19,61,292.51,61.74,293.72l2.21,3.74Zm-99-5h94.77C756.15,429.39,699.08,314.78,707.4,161H623c.36,10.83,3.25,55.8,26.18,105.37C683.27,340.08,675,433.83,673.12,451.16Z"/><path class="cls-59" d="M712.83,257.86c-.16-1.39-.31-2.79-.46-4.2H641c.56,1.4,1.13,2.8,1.72,4.2Z"/><path class="cls-60" d="M714,267q-.29-2.08-.54-4.2H644.86q.93,2.1,1.89,4.2Z"/><path class="cls-61" d="M711,239.54c-.11-1.39-.23-2.79-.34-4.2h-76.3c.45,1.39.92,2.8,1.4,4.2Z"/><path class="cls-62" d="M715.22,276.18q-.3-2.08-.6-4.2H649c.61,1.39,1.2,2.8,1.77,4.2Z"/><path class="cls-63" d="M718.21,294.5c-.25-1.4-.5-2.79-.74-4.2H656c.48,1.4.94,2.8,1.39,4.2Z"/><path class="cls-64" d="M710.34,230.39c-.1-1.4-.19-2.8-.27-4.21H631.56c.4,1.39.82,2.79,1.25,4.21Z"/><path class="cls-65" d="M716.64,285.34c-.23-1.39-.45-2.8-.66-4.2H652.71c.54,1.4,1.06,2.8,1.57,4.2Z"/><path class="cls-66" d="M621.53,175.43h87.76c0-1.39.09-2.8.14-4.2H621.14Q621.31,173.2,621.53,175.43Z"/><path class="cls-67" d="M709.1,184.59c0-1.4,0-2.8.07-4.2H622.1c.16,1.35.35,2.75.55,4.2Z"/><path class="cls-68" d="M719.92,303.66c-.27-1.39-.54-2.8-.8-4.2H658.94c.42,1.4.82,2.8,1.22,4.2Z"/><path class="cls-69" d="M709.4,212.07c0-1.4-.09-2.8-.13-4.2h-82.4c.31,1.38.63,2.78,1,4.2Z"/><path class="cls-70" d="M709.06,193.75c0-1.4,0-2.8,0-4.2H623.39q.32,2,.69,4.2Z"/><path class="cls-71" d="M709.79,221.23c-.07-1.4-.13-2.8-.19-4.21H629.06c.36,1.39.72,2.79,1.11,4.21Z"/><path class="cls-72" d="M709.16,202.91c0-1.4-.06-2.8-.08-4.2H625c.26,1.37.53,2.77.83,4.2Z"/><path class="cls-73" d="M711.85,248.7c-.14-1.39-.27-2.79-.4-4.2H637.53c.5,1.39,1,2.8,1.56,4.2Z"/><path class="cls-74" d="M752.91,413.57c-.57-1.37-1.15-2.77-1.73-4.2H673c0,1.42,0,2.82-.05,4.2Z"/><path class="cls-75" d="M673,404.41H749.2c-.54-1.38-1.09-2.78-1.64-4.2H672.94Q673,402.34,673,404.41Z"/><path class="cls-76" d="M745.68,395.25c-.51-1.38-1-2.78-1.54-4.2H672.75c0,1.42.08,2.81.11,4.2Z"/><path class="cls-77" d="M709.62,166.27q.18-3.86.4-7.76H620.47s0,2.79.29,7.76Z"/><path class="cls-78" d="M756.83,422.73c-.6-1.36-1.21-2.77-1.83-4.21H672.79c0,1.44-.08,2.84-.13,4.21Z"/><path class="cls-79" d="M742.36,386.09q-.74-2.07-1.47-4.2H672.36c.08,1.41.14,2.81.2,4.2Z"/><path class="cls-80" d="M761,431.89c-.62-1.34-1.27-2.75-1.93-4.2h-86.6c-.07,1.45-.15,2.85-.22,4.2Z"/><path class="cls-81" d="M723.8,322c-.32-1.39-.63-2.8-.94-4.2H663.75c.33,1.4.64,2.8.94,4.2Z"/><path class="cls-82" d="M726,331.14c-.34-1.4-.68-2.79-1-4.21H665.72c.27,1.41.54,2.81.8,4.21Z"/><path class="cls-83" d="M721.79,312.82c-.29-1.4-.59-2.79-.88-4.2H661.5c.37,1.4.73,2.8,1.07,4.2Z"/><path class="cls-84" d="M728.3,340.3c-.36-1.39-.72-2.8-1.08-4.21H667.4c.24,1.41.47,2.81.69,4.21Z"/><path class="cls-85" d="M730.78,349.45c-.38-1.39-.77-2.78-1.16-4.2H668.83c.21,1.41.4,2.81.58,4.2Z"/><path class="cls-86" d="M739.21,376.93q-.69-2.07-1.38-4.2h-66c.11,1.41.2,2.81.29,4.2Z"/><path class="cls-87" d="M736.24,367.77c-.44-1.38-.88-2.78-1.31-4.2H671c.13,1.41.26,2.81.38,4.2Z"/><path class="cls-88" d="M733.43,358.61c-.41-1.39-.82-2.78-1.23-4.2H670q.26,2.11.48,4.2Z"/><rect class="cls-89" x="499.54" y="19.31" width="105.56" height="4.76"/><rect class="cls-90" x="499.54" y="29.38" width="105.56" height="4.76"/><rect class="cls-91" x="499.54" y="39.46" width="105.56" height="4.76"/><rect class="cls-92" x="499.54" y="49.54" width="105.56" height="4.76"/><rect class="cls-93" x="499.54" y="59.61" width="105.56" height="4.76"/><rect class="cls-94" x="499.54" y="69.69" width="105.56" height="4.76"/><rect class="cls-95" x="499.54" y="79.77" width="105.56" height="4.76"/><rect class="cls-96" x="499.54" y="89.84" width="105.56" height="4.76"/><rect class="cls-97" x="499.54" y="99.92" width="105.56" height="4.76"/><rect class="cls-98" x="499.54" y="110" width="105.56" height="4.76"/><rect class="cls-98" x="499.54" y="120.07" width="105.56" height="4.76"/><rect class="cls-99" x="499.54" y="130.15" width="105.56" height="4.76"/><rect class="cls-99" x="499.54" y="140.23" width="105.56" height="4.76"/><rect class="cls-100" x="499.54" y="150.3" width="105.56" height="4.76"/><rect class="cls-101" x="499.54" y="160.38" width="105.56" height="4.76"/><rect class="cls-102" x="499.54" y="170.46" width="105.56" height="4.76"/><rect class="cls-103" x="499.54" y="180.53" width="105.56" height="4.76"/><rect class="cls-104" x="499.54" y="190.61" width="105.56" height="4.76"/><rect class="cls-105" x="499.54" y="200.69" width="105.56" height="4.76"/><rect class="cls-106" x="499.54" y="210.76" width="105.56" height="4.76"/><rect class="cls-107" x="499.54" y="220.84" width="105.56" height="4.76"/><rect class="cls-107" x="499.54" y="230.92" width="105.56" height="4.76"/><rect class="cls-108" x="499.54" y="240.99" width="105.56" height="4.76"/><rect class="cls-108" x="499.54" y="251.07" width="105.56" height="4.76"/><rect class="cls-109" x="499.54" y="261.15" width="105.56" height="4.76"/><rect class="cls-110" x="499.54" y="271.22" width="105.56" height="4.76"/><rect class="cls-111" x="499.54" y="281.3" width="105.56" height="4.76"/><rect class="cls-112" x="499.54" y="291.38" width="105.56" height="4.76"/><rect class="cls-113" x="499.54" y="301.45" width="105.56" height="4.76"/><rect class="cls-114" x="499.54" y="311.53" width="105.56" height="4.76"/><rect class="cls-115" x="499.54" y="321.61" width="105.56" height="4.76"/><rect class="cls-116" x="499.54" y="331.68" width="105.56" height="4.76"/><rect class="cls-117" x="499.54" y="341.76" width="105.56" height="4.76"/><rect class="cls-118" x="499.54" y="351.84" width="105.56" height="4.76"/><rect class="cls-119" x="499.54" y="361.91" width="105.56" height="4.76"/><rect class="cls-120" x="499.54" y="371.99" width="105.56" height="4.76"/><rect class="cls-121" x="499.54" y="382.07" width="105.56" height="4.76"/><rect class="cls-122" x="499.54" y="392.14" width="105.56" height="4.76"/><rect class="cls-123" x="499.54" y="402.22" width="105.56" height="4.76"/><rect class="cls-124" x="499.54" y="412.3" width="105.56" height="4.76"/><rect class="cls-125" x="499.54" y="422.37" width="105.56" height="4.76"/><rect class="cls-126" x="499.54" y="432.45" width="105.56" height="4.76"/><rect class="cls-126" x="499.54" y="442.53" width="105.56" height="4.76"/><rect class="cls-126" x="499.54" y="452.6" width="105.56" height="4.76"/><path class="cls-127" d="M499.54,456.66C513.62,409,522.87,328.85,522.87,238S513.62,67,499.54,19.31Z"/><path class="cls-128" d="M605.11,19.31C591,67,581.79,147.12,581.79,238S591,409,605.11,456.66Z"/><rect class="cls-129" x="854.14" y="423.76" width="33.43" height="48.68"/></svg>