<svg id="Layer_1" data-name="Layer 1" xmlns="http://www.w3.org/2000/svg" xmlns:xlink="http://www.w3.org/1999/xlink" viewBox="0 0 687 622"><defs><style>.cls-1{fill:url(#linear-gradient);}.cls-2{fill:url(#linear-gradient-2);}.cls-3{fill:url(#linear-gradient-3);}.cls-4{fill:url(#linear-gradient-4);}.cls-5{fill:url(#linear-gradient-5);}.cls-6{fill:url(#linear-gradient-6);}.cls-7{fill:url(#linear-gradient-7);}.cls-8{fill:url(#linear-gradient-8);}.cls-9{fill:url(#linear-gradient-9);}.cls-10{fill:url(#linear-gradient-10);}.cls-11{fill:url(#linear-gradient-11);}.cls-12{fill:url(#linear-gradient-12);}.cls-13{fill:url(#linear-gradient-13);}.cls-14{fill:url(#linear-gradient-14);}.cls-15{fill:url(#linear-gradient-15);}.cls-16{fill:url(#linear-gradient-16);}.cls-17{fill:url(#linear-gradient-17);}.cls-18{fill:url(#linear-gradient-18);}.cls-19{fill:url(#linear-gradient-19);}.cls-20{fill:url(#linear-gradient-20);}.cls-21{fill:url(#linear-gradient-21);}.cls-22{fill:url(#linear-gradient-22);}.cls-23{fill:url(#linear-gradient-23);}.cls-24{fill:url(#linear-gradient-24);}.cls-25{fill:url(#linear-gradient-25);}.cls-26{fill:url(#linear-gradient-26);}.cls-27{fill:url(#linear-gradient-27);}.cls-28{fill:url(#linear-gradient-28);}.cls-29{fill:url(#linear-gradient-29);}.cls-30{fill:url(#linear-gradient-30);}.cls-31{fill:url(#linear-gradient-31);}.cls-32{fill:url(#linear-gradient-32);}.cls-33{fill:url(#linear-gradient-33);}.cls-34{fill:url(#linear-gradient-34);}.cls-35{fill:url(#linear-gradient-35);}.cls-36{fill:url(#linear-gradient-36);}.cls-37{fill:url(#linear-gradient-37);}.cls-38{fill:url(#linear-gradient-38);}.cls-39{fill:url(#linear-gradient-39);}.cls-40{fill:url(#linear-gradient-40);}.cls-41{fill:url(#linear-gradient-41);}.cls-42{fill:url(#linear-gradient-42);}.cls-43{fill:url(#linear-gradient-43);}.cls-44{fill:url(#linear-gradient-44);}.cls-45{fill:url(#linear-gradient-45);}.cls-46{fill:url(#linear-gradient-46);}.cls-47{fill:url(#linear-gradient-47);}.cls-48{fill:url(#linear-gradient-48);}.cls-49{fill:url(#linear-gradient-49);}.cls-50{fill:url(#linear-gradient-50);}.cls-51{fill:url(#linear-gradient-51);}.cls-52{fill:url(#linear-gradient-52);}.cls-53{fill:url(#linear-gradient-53);}.cls-54{fill:url(#linear-gradient-54);}.cls-55{fill:url(#linear-gradient-55);}.cls-56{fill:url(#linear-gradient-56);}.cls-57{fill:url(#linear-gradient-57);}.cls-58{fill:url(#linear-gradient-58);}.cls-59{fill:url(#linear-gradient-59);}.cls-60{fill:url(#linear-gradient-60);}.cls-61{fill:url(#linear-gradient-61);}.cls-62{fill:url(#linear-gradient-62);}.cls-63{fill:url(#linear-gradient-63);}.cls-64{fill:url(#linear-gradient-64);}.cls-65{fill:url(#linear-gradient-65);}</style><linearGradient id="linear-gradient" x1="265.08" y1="839.39" x2="501.52" y2="435.35" gradientUnits="userSpaceOnUse"><stop offset="0" stop-color="#fbb24e"/><stop offset="0.21" stop-color="#d9a154"/><stop offset="0.75" stop-color="#877761"/><stop offset="1" stop-color="#666"/></linearGradient><linearGradient id="linear-gradient-2" x1="261.36" y1="837.21" x2="497.8" y2="433.17" xlink:href="#linear-gradient"/><linearGradient id="linear-gradient-3" x1="257.65" y1="835.04" x2="494.08" y2="431" xlink:href="#linear-gradient"/><linearGradient id="linear-gradient-4" x1="268.8" y1="841.56" x2="505.24" y2="437.53" xlink:href="#linear-gradient"/><linearGradient id="linear-gradient-5" x1="272.52" y1="843.74" x2="508.95" y2="439.7" xlink:href="#linear-gradient"/><linearGradient id="linear-gradient-6" x1="253.93" y1="832.86" x2="490.36" y2="428.82" xlink:href="#linear-gradient"/><linearGradient id="linear-gradient-7" x1="246.49" y1="828.51" x2="482.93" y2="424.47" xlink:href="#linear-gradient"/><linearGradient id="linear-gradient-8" x1="250.21" y1="830.68" x2="486.65" y2="426.65" xlink:href="#linear-gradient"/><linearGradient id="linear-gradient-9" x1="279.95" y1="848.09" x2="516.39" y2="444.05" xlink:href="#linear-gradient"/><linearGradient id="linear-gradient-10" x1="194.44" y1="798.05" x2="430.87" y2="394.01" xlink:href="#linear-gradient"/><linearGradient id="linear-gradient-11" x1="294.83" y1="856.79" x2="531.26" y2="452.76" xlink:href="#linear-gradient"/><linearGradient id="linear-gradient-12" x1="298.54" y1="858.97" x2="534.98" y2="454.93" xlink:href="#linear-gradient"/><linearGradient id="linear-gradient-13" x1="165.54" y1="781.14" x2="401.97" y2="377.1" xlink:href="#linear-gradient"/><linearGradient id="linear-gradient-14" x1="242.77" y1="826.33" x2="479.21" y2="422.3" xlink:href="#linear-gradient"/><linearGradient id="linear-gradient-15" x1="291.11" y1="854.62" x2="527.55" y2="450.58" xlink:href="#linear-gradient"/><linearGradient id="linear-gradient-16" x1="283.67" y1="850.27" x2="520.11" y2="446.23" xlink:href="#linear-gradient"/><linearGradient id="linear-gradient-17" x1="276.24" y1="845.92" x2="512.67" y2="441.88" xlink:href="#linear-gradient"/><linearGradient id="linear-gradient-18" x1="287.39" y1="852.44" x2="523.83" y2="448.41" xlink:href="#linear-gradient"/><linearGradient id="linear-gradient-19" x1="231.62" y1="819.81" x2="468.06" y2="415.77" xlink:href="#linear-gradient"/><linearGradient id="linear-gradient-20" x1="190.63" y1="795.82" x2="427.06" y2="391.78" xlink:href="#linear-gradient"/><linearGradient id="linear-gradient-21" x1="186.49" y1="793.4" x2="422.93" y2="389.36" xlink:href="#linear-gradient"/><linearGradient id="linear-gradient-22" x1="182" y1="790.77" x2="418.43" y2="386.73" xlink:href="#linear-gradient"/><linearGradient id="linear-gradient-23" x1="198.16" y1="800.22" x2="434.59" y2="396.19" xlink:href="#linear-gradient"/><linearGradient id="linear-gradient-24" x1="302.37" y1="861.21" x2="538.81" y2="457.17" xlink:href="#linear-gradient"/><linearGradient id="linear-gradient-25" x1="201.87" y1="802.4" x2="438.31" y2="398.36" xlink:href="#linear-gradient"/><linearGradient id="linear-gradient-26" x1="158.06" y1="776.76" x2="394.49" y2="372.72" xlink:href="#linear-gradient"/><linearGradient id="linear-gradient-27" x1="177.09" y1="787.9" x2="413.53" y2="383.86" xlink:href="#linear-gradient"/><linearGradient id="linear-gradient-28" x1="171.68" y1="784.73" x2="408.12" y2="380.69" xlink:href="#linear-gradient"/><linearGradient id="linear-gradient-29" x1="227.9" y1="817.63" x2="464.34" y2="413.59" xlink:href="#linear-gradient"/><linearGradient id="linear-gradient-30" x1="220.46" y1="813.28" x2="456.9" y2="409.24" xlink:href="#linear-gradient"/><linearGradient id="linear-gradient-31" x1="224.18" y1="815.45" x2="460.62" y2="411.42" xlink:href="#linear-gradient"/><linearGradient id="linear-gradient-32" x1="239.06" y1="824.16" x2="475.49" y2="420.12" xlink:href="#linear-gradient"/><linearGradient id="linear-gradient-33" x1="235.34" y1="821.98" x2="471.77" y2="417.94" xlink:href="#linear-gradient"/><linearGradient id="linear-gradient-34" x1="209.31" y1="806.75" x2="445.75" y2="402.71" xlink:href="#linear-gradient"/><linearGradient id="linear-gradient-35" x1="216.75" y1="811.1" x2="453.18" y2="407.07" xlink:href="#linear-gradient"/><linearGradient id="linear-gradient-36" x1="205.59" y1="804.58" x2="442.03" y2="400.54" xlink:href="#linear-gradient"/><linearGradient id="linear-gradient-37" x1="213.03" y1="808.93" x2="449.47" y2="404.89" xlink:href="#linear-gradient"/><linearGradient id="linear-gradient-38" x1="204.21" y1="803.77" x2="440.65" y2="399.73" xlink:href="#linear-gradient"/><linearGradient id="linear-gradient-39" x1="204.18" y1="803.75" x2="440.61" y2="399.71" xlink:href="#linear-gradient"/><linearGradient id="linear-gradient-40" x1="284.86" y1="850.96" x2="521.3" y2="446.92" xlink:href="#linear-gradient"/><linearGradient id="linear-gradient-41" x1="287.3" y1="852.39" x2="523.74" y2="448.35" xlink:href="#linear-gradient"/><linearGradient id="linear-gradient-42" x1="322.09" y1="872.75" x2="558.53" y2="468.71" xlink:href="#linear-gradient"/><linearGradient id="linear-gradient-43" x1="314.32" y1="868.2" x2="550.76" y2="464.16" xlink:href="#linear-gradient"/><linearGradient id="linear-gradient-44" x1="165.4" y1="781.06" x2="401.84" y2="377.02" xlink:href="#linear-gradient"/><linearGradient id="linear-gradient-45" x1="158.42" y1="776.97" x2="394.86" y2="372.94" xlink:href="#linear-gradient"/><linearGradient id="linear-gradient-46" x1="132.2" y1="761.63" x2="368.63" y2="357.59" xlink:href="#linear-gradient"/><linearGradient id="linear-gradient-47" x1="95.76" y1="740.3" x2="332.18" y2="336.28" xlink:href="#linear-gradient"/><linearGradient id="linear-gradient-48" x1="72.9" y1="726.92" x2="309.33" y2="322.89" xlink:href="#linear-gradient"/><linearGradient id="linear-gradient-49" x1="46.32" y1="711.37" x2="282.75" y2="307.33" xlink:href="#linear-gradient"/><linearGradient id="linear-gradient-50" x1="28.12" y1="700.72" x2="264.55" y2="296.68" xlink:href="#linear-gradient"/><linearGradient id="linear-gradient-51" x1="6.95" y1="688.33" x2="243.39" y2="284.3" xlink:href="#linear-gradient"/><linearGradient id="linear-gradient-52" x1="-5.3" y1="681.16" x2="231.13" y2="277.12" xlink:href="#linear-gradient"/><linearGradient id="linear-gradient-53" x1="-19.55" y1="672.82" x2="216.88" y2="268.79" xlink:href="#linear-gradient"/><linearGradient id="linear-gradient-54" x1="-26.55" y1="668.73" x2="209.88" y2="264.69" xlink:href="#linear-gradient"/><linearGradient id="linear-gradient-55" x1="17.38" y1="694.43" x2="253.81" y2="290.4" xlink:href="#linear-gradient"/><linearGradient id="linear-gradient-56" x1="-12.98" y1="676.67" x2="223.46" y2="272.64" xlink:href="#linear-gradient"/><linearGradient id="linear-gradient-57" x1="-32.02" y1="665.53" x2="204.42" y2="261.49" xlink:href="#linear-gradient"/><linearGradient id="linear-gradient-58" x1="-54.16" y1="652.57" x2="182.28" y2="248.54" xlink:href="#linear-gradient"/><linearGradient id="linear-gradient-59" x1="-69.32" y1="643.7" x2="167.12" y2="239.66" xlink:href="#linear-gradient"/><linearGradient id="linear-gradient-60" x1="-86.95" y1="633.39" x2="149.49" y2="229.35" xlink:href="#linear-gradient"/><linearGradient id="linear-gradient-61" x1="-97.16" y1="627.41" x2="139.28" y2="223.37" xlink:href="#linear-gradient"/><linearGradient id="linear-gradient-62" x1="-109.03" y1="620.47" x2="127.41" y2="216.43" xlink:href="#linear-gradient"/><linearGradient id="linear-gradient-63" x1="-114.86" y1="617.05" x2="121.58" y2="213.02" xlink:href="#linear-gradient"/><linearGradient id="linear-gradient-64" x1="37.26" y1="706.07" x2="273.7" y2="302.03" xlink:href="#linear-gradient"/><linearGradient id="linear-gradient-65" x1="193.09" y1="797.26" x2="429.53" y2="393.22" xlink:href="#linear-gradient"/></defs><polygon class="cls-1" points="467.86 436.86 467.59 441.67 530.6 441.67 530.6 436.86 467.86 436.86"/><polygon class="cls-2" points="468.35 427.9 468.08 432.71 530.6 432.71 530.6 427.9 468.35 427.9"/><polygon class="cls-3" points="468.85 418.95 468.58 423.76 530.6 423.76 530.6 418.95 468.85 418.95"/><polygon class="cls-4" points="467.36 445.81 467.09 450.62 530.6 450.62 530.6 445.81 467.36 445.81"/><polygon class="cls-5" points="466.86 454.77 466.59 459.58 530.6 459.58 530.6 454.77 466.86 454.77"/><polygon class="cls-6" points="469.35 410 469.08 414.8 530.6 414.8 530.6 410 469.35 410"/><polygon class="cls-7" points="470.35 392.08 470.08 396.89 530.6 396.89 530.6 392.08 470.35 392.08"/><polygon class="cls-8" points="469.85 401.04 469.58 405.85 530.6 405.85 530.6 401.04 469.85 401.04"/><polygon class="cls-9" points="465.86 472.68 465.6 477.49 530.6 477.49 530.6 472.68 465.86 472.68"/><path class="cls-10" d="M477.05,271.52H530.6v-2.18c0-.88,0-1.75-.05-2.63H477.32Z"/><polygon class="cls-11" points="463.87 508.5 463.6 513.31 530.6 513.31 530.6 508.5 463.87 508.5"/><polygon class="cls-12" points="530.6 522.26 530.6 517.46 463.37 517.46 463.1 522.26 530.6 522.26"/><path class="cls-13" d="M480,217.79H512.9a55.38,55.38,0,0,0-4.75-4.81H480.31Z"/><polygon class="cls-14" points="470.84 383.13 470.58 387.94 530.6 387.94 530.6 383.13 470.84 383.13"/><polygon class="cls-15" points="464.37 499.55 464.1 504.35 530.6 504.35 530.6 499.55 464.37 499.55"/><polygon class="cls-16" points="465.36 481.64 465.1 486.44 530.6 486.44 530.6 481.64 465.36 481.64"/><polygon class="cls-17" points="466.36 463.72 466.09 468.53 530.6 468.53 530.6 463.72 466.36 463.72"/><polygon class="cls-18" points="464.87 490.59 464.6 495.4 530.6 495.4 530.6 490.59 464.87 490.59"/><polygon class="cls-19" points="472.34 356.26 472.07 361.07 530.6 361.07 530.6 356.26 472.34 356.26"/><path class="cls-20" d="M477.82,257.76l-.27,4.8h52.8c-.12-1.62-.29-3.22-.49-4.8Z"/><path class="cls-21" d="M478.32,248.8l-.27,4.81h51.18c-.29-1.63-.61-3.23-1-4.81Z"/><path class="cls-22" d="M478.81,239.85l-.26,4.8h48.6c-.48-1.63-1-3.24-1.55-4.8Z"/><polygon class="cls-23" points="476.82 275.67 476.55 280.48 530.6 280.48 530.6 275.67 476.82 275.67"/><polygon class="cls-24" points="462.87 526.41 462.58 531.7 530.6 531.7 530.6 526.41 462.87 526.41"/><polygon class="cls-25" points="476.32 284.62 476.06 289.43 530.6 289.43 530.6 284.62 476.32 284.62"/><path class="cls-26" d="M480.81,204l-.27,4.81H502.8a42,42,0,0,0-9.62-4.81Z"/><path class="cls-27" d="M479.31,230.89l-.26,4.81H524q-1.05-2.47-2.25-4.81Z"/><path class="cls-28" d="M479.81,221.94l-.27,4.8h39.87c-1-1.67-2.07-3.27-3.19-4.8Z"/><polygon class="cls-29" points="472.84 347.31 472.57 352.12 530.6 352.12 530.6 347.31 472.84 347.31"/><polygon class="cls-30" points="473.83 329.4 473.56 334.21 530.6 334.21 530.6 329.4 473.83 329.4"/><polygon class="cls-31" points="473.33 338.35 473.07 343.16 530.6 343.16 530.6 338.35 473.33 338.35"/><polygon class="cls-32" points="471.34 374.17 471.07 378.98 530.6 378.98 530.6 374.17 471.34 374.17"/><polygon class="cls-33" points="471.84 365.22 471.57 370.03 530.6 370.03 530.6 365.22 471.84 365.22"/><polygon class="cls-34" points="475.33 302.53 475.06 307.34 530.6 307.34 530.6 302.53 475.33 302.53"/><polygon class="cls-35" points="474.33 320.44 474.06 325.25 530.6 325.25 530.6 320.44 474.33 320.44"/><polygon class="cls-36" points="475.82 293.58 475.56 298.38 530.6 298.38 530.6 293.58 475.82 293.58"/><polygon class="cls-37" points="474.83 311.49 474.56 316.3 530.6 316.3 530.6 311.49 474.83 311.49"/><polygon class="cls-38" points="454.17 531.7 465.64 531.7 480.92 201.95 454.17 201.95 454.17 531.7"/><path class="cls-39" d="M467.62,533.78H452.1V199.88h31Zm-11.37-4.15h7.41L478.75,204h-22.5Z"/><rect class="cls-40" x="552.46" y="171.5" width="64.45" height="334.21"/><rect class="cls-41" x="592.82" y="142.63" width="24.09" height="334.21"/><rect class="cls-42" x="581.65" y="224.51" width="75" height="281.21"/><rect class="cls-43" x="605.26" y="206.68" width="27.78" height="281.21"/><rect class="cls-44" x="362.95" y="253.07" width="75" height="252.64"/><rect class="cls-45" x="386.56" y="237.06" width="27.78" height="252.64"/><rect class="cls-46" x="324.19" y="333.43" width="33.01" height="143.8"/><polygon class="cls-47" points="366 321.73 315.39 321.73 324.19 333.43 357.2 333.43 366 321.73"/><rect class="cls-48" x="328.66" y="216.84" width="24.07" height="104.89"/><polygon class="cls-49" points="359.15 208.31 322.24 208.31 328.66 216.84 352.74 216.84 359.15 208.31"/><rect class="cls-50" x="331.11" y="124.8" width="19.17" height="83.51"/><polygon class="cls-51" points="355.39 118.01 326 118.01 331.11 124.8 350.28 124.8 355.39 118.01"/><rect class="cls-52" x="334.24" y="61.77" width="12.91" height="56.24"/><polygon class="cls-53" points="350.59 57.2 330.8 57.2 334.24 61.77 347.15 61.77 350.59 57.2"/><rect class="cls-54" x="337.01" y="25.09" width="7.37" height="32.11"/><rect class="cls-55" x="124.27" y="428.38" width="27.49" height="119.78"/><polygon class="cls-56" points="159.1 418.64 116.94 418.64 124.27 428.38 151.77 428.38 159.1 418.64"/><rect class="cls-57" x="127.99" y="331.28" width="20.05" height="87.37"/><polygon class="cls-58" points="153.39 324.17 122.64 324.17 127.99 331.27 148.05 331.27 153.39 324.17"/><rect class="cls-59" x="130.04" y="254.61" width="15.97" height="69.56"/><polygon class="cls-60" points="150.26 248.95 125.78 248.95 130.04 254.61 146 254.61 150.26 248.95"/><rect class="cls-61" x="132.64" y="202.11" width="10.75" height="46.84"/><polygon class="cls-62" points="146.26 198.3 129.78 198.3 132.64 202.11 143.4 202.11 146.26 198.3"/><rect class="cls-63" x="134.95" y="171.55" width="6.14" height="26.75"/><polygon class="cls-64" points="295.47 177.98 295.47 173.18 303.49 173.18 303.49 154.22 212.41 154.22 212.41 173.18 220.43 173.18 220.43 177.98 204.39 177.98 204.39 489.97 311.51 489.97 311.51 177.98 295.47 177.98"/><polygon class="cls-65" points="552.46 459.12 552.46 527.87 357.2 527.87 357.2 459.12 160.39 459.12 160.39 556.82 28.9 556.82 28.9 459.12 -0.42 459.12 -0.42 621.98 687.06 621.98 687.06 459.12 552.46 459.12"/></svg>